<svg xmlns="http://www.w3.org/2000/svg" width="360" height="800" viewBox="0 0 360 800">
<title>M3 Home</title>
<rect id="screen-background" x="0.0" y="0.0" width="360.0" height="800.0" fill="#F5F6FA"/>
<g id="status-bar">
<text id="11-05" x="16.0" y="18.0" font-family="Segoe UI" font-size="12.5" font-weight="600" fill="#FFFFFF">11:05</text>
<rect id="battery" x="322.0" y="8.0" width="20.0" height="10.0" rx="2" fill="none" stroke="#FFFFFF" stroke-width="1.2"/>
<rect x="324.0" y="10.0" width="13.0" height="6.0" rx="1" fill="#FFFFFF"/>
<rect x="342.5" y="11.0" width="2.0" height="4.0" rx="1" fill="#FFFFFF"/>
<rect id="signal-bar" x="292.0" y="14.0" width="3.0" height="3.0" rx="0.8" fill="#FFFFFF" fill-opacity="1"/>
<rect id="signal-bar-2" x="297.0" y="11.8" width="3.0" height="5.2" rx="0.8" fill="#FFFFFF" fill-opacity="1"/>
<rect id="signal-bar-3" x="302.0" y="9.6" width="3.0" height="7.4" rx="0.8" fill="#FFFFFF" fill-opacity="1"/>
<rect id="signal-bar-4" x="307.0" y="7.4" width="3.0" height="9.6" rx="0.8" fill="#FFFFFF" fill-opacity="0.3"/>
<text id="network" x="270.5" y="18.0" font-family="Segoe UI" font-size="10.5" font-weight="700" fill="#FFFFFF">4G</text>
</g>
<g id="header">
<rect id="header-bg" x="0.0" y="0.0" width="360.0" height="176.0" fill="#2F2E80"/>
<g id="facets" opacity="0.08">
<path d="M300.0 30.0 L420.0 230.0 L180.0 230.0 Z" fill="#FFFFFF"/>
</g>
<text id="Good-morning" x="16.0" y="58.0" font-family="Segoe UI" font-size="14" font-weight="400" fill="#C9C8EE">Good morning,</text>
<text id="Sarah-Namuli" x="16.0" y="86.0" font-family="Segoe UI" font-size="23" font-weight="700" fill="#FFFFFF">Sarah Namuli</text>
<text id="Kampala-East-Ntinda-Kiwa" x="16.0" y="108.0" font-family="Segoe UI" font-size="12.5" font-weight="400" fill="#C9C8EE">Kampala East · Ntinda · Kiwatule</text>
<g id="icon-bell" transform="translate(320.0 40.0) scale(1.0000)">
<path d="M6 8a6 6 0 0 1 12 0c0 7 3 9 3 9H3s3-2 3-9" fill="none" stroke="#FFFFFF" stroke-width="2.00" stroke-linecap="round" stroke-linejoin="round"/>
<path d="M10.3 21a1.94 1.94 0 0 0 3.4 0" fill="none" stroke="#FFFFFF" stroke-width="2.00" stroke-linecap="round" stroke-linejoin="round"/>
</g>
<circle cx="340.0" cy="42.0" r="6.0" fill="#FBD405"/>
<g id="sync-pill">
<rect x="16.0" y="120.0" width="138.0" height="24.0" rx="12" fill="#FFFFFF" fill-opacity="0.12"/>
<circle cx="29.0" cy="132.0" r="4.0" fill="#6EE7A8"/>
<text id="Synced-11-04-online" x="40.0" y="136.5" font-family="Segoe UI" font-size="11.5" font-weight="600" fill="#FFFFFF">Synced 11:04 · online</text>
</g>
</g>
<g id="status-bar-2">
<text id="11-05-2" x="16.0" y="18.0" font-family="Segoe UI" font-size="12.5" font-weight="600" fill="#FFFFFF">11:05</text>
<rect id="battery-2" x="322.0" y="8.0" width="20.0" height="10.0" rx="2" fill="none" stroke="#FFFFFF" stroke-width="1.2"/>
<rect x="324.0" y="10.0" width="13.0" height="6.0" rx="1" fill="#FFFFFF"/>
<rect x="342.5" y="11.0" width="2.0" height="4.0" rx="1" fill="#FFFFFF"/>
<rect id="signal-bar-5" x="292.0" y="14.0" width="3.0" height="3.0" rx="0.8" fill="#FFFFFF" fill-opacity="1"/>
<rect id="signal-bar-6" x="297.0" y="11.8" width="3.0" height="5.2" rx="0.8" fill="#FFFFFF" fill-opacity="1"/>
<rect id="signal-bar-7" x="302.0" y="9.6" width="3.0" height="7.4" rx="0.8" fill="#FFFFFF" fill-opacity="1"/>
<rect id="signal-bar-8" x="307.0" y="7.4" width="3.0" height="9.6" rx="0.8" fill="#FFFFFF" fill-opacity="0.3"/>
<text id="network-2" x="270.5" y="18.0" font-family="Segoe UI" font-size="10.5" font-weight="700" fill="#FFFFFF">4G</text>
</g>
<g id="today-card">
<rect x="16.0" y="156.0" width="328.0" height="124.0" rx="16" fill="#FFFFFF" stroke="#E4E5EF" stroke-width="1"/>
<text id="Today" x="32.0" y="183.0" font-family="Segoe UI" font-size="14" font-weight="700" fill="#1B1C3A">Today</text>
<text id="Wed-30-Sep" x="264.7" y="183.0" font-family="Segoe UI" font-size="12" font-weight="400" fill="#7D8099">Wed 30 Sep</text>
<text id="2" x="32.0" y="218.0" font-family="Segoe UI" font-size="22" font-weight="700" fill="#1B1C3A">2</text>
<text id="of-4" x="46.7" y="218.0" font-family="Segoe UI" font-size="13" font-weight="400" fill="#7D8099"> of 4</text>
<text id="Planned-visits" x="32.0" y="237.0" font-family="Segoe UI" font-size="12" font-weight="400" fill="#4B4D6B">Planned visits</text>
<text id="1" x="130.7" y="218.0" font-family="Segoe UI" font-size="22" font-weight="700" fill="#1B1C3A">1</text>
<text id="Off-plan-visit" x="130.7" y="237.0" font-family="Segoe UI" font-size="12" font-weight="400" fill="#4B4D6B">Off-plan visit</text>
<text id="0" x="229.3" y="218.0" font-family="Segoe UI" font-size="22" font-weight="700" fill="#1B1C3A">0</text>
<text id="Conversions" x="229.3" y="237.0" font-family="Segoe UI" font-size="12" font-weight="400" fill="#4B4D6B">Conversions</text>
<line x1="32.0" y1="250.0" x2="328.0" y2="250.0" stroke="#EFF0F6" stroke-width="1"/>
<text id="Q3-target" x="32.0" y="269.0" font-family="Segoe UI" font-size="12" font-weight="600" fill="#4B4D6B">Q3 target</text>
<g id="progress">
<rect x="100.0" y="262.0" width="118.0" height="6.0" rx="3.0" fill="#EFF0F6"/>
<rect x="100.0" y="262.0" width="96.5" height="6.0" rx="3.0" fill="#2F2E80"/>
</g>
<text id="18-of-22-ends-today" x="215.9" y="269.0" font-family="Segoe UI" font-size="12" font-weight="600" fill="#1B1C3A">18 of 22 · ends today</text>
</g>
<g id="next-visit">
<rect x="16.0" y="292.0" width="328.0" height="104.0" rx="14" fill="#FFFFFF" stroke="#2F2E80" stroke-width="2"/>
<text id="NEXT-VISIT-KIWATULE-FOLLOW" x="30.0" y="314.0" font-family="Segoe UI" font-size="10.5" font-weight="700" fill="#2F2E80" letter-spacing="0.6">NEXT VISIT · KIWATULE FOLLOW-UPS</text>
<text id="Florence-Nambi" x="30.0" y="338.0" font-family="Segoe UI" font-size="16" font-weight="700" fill="#1B1C3A">Florence Nambi</text>
<text id="Take-KYC-ID-and-sales-book" x="30.0" y="358.0" font-family="Segoe UI" font-size="12.5" font-weight="400" fill="#4B4D6B">Take KYC: ID and sales book</text>
<g id="icon-navigation" transform="translate(30.0 368.0) scale(0.5417)">
<path d="M3 11l19-9-9 19-2-8z" fill="none" stroke="#7D8099" stroke-width="3.69" stroke-linecap="round" stroke-linejoin="round"/>
</g>
<text id="0-6-km-4-min-Kiwatule" x="48.0" y="380.0" font-family="Segoe UI" font-size="12" font-weight="400" fill="#7D8099">0.6 km · 4 min · Kiwatule</text>
<g id="button-Check-in">
<rect x="222.0" y="326.0" width="108.0" height="38.0" rx="8" fill="#2F2E80"/>
<g id="icon-pin" transform="translate(238.0 336.0) scale(0.7500)">
<path d="M20 10c0 6-8 12-8 12s-8-6-8-12a8 8 0 0 1 16 0z" fill="none" stroke="#FFFFFF" stroke-width="2.67" stroke-linecap="round" stroke-linejoin="round"/>
<path d="M12 7a3 3 0 1 0 0 6 3 3 0 1 0 0-6z" fill="none" stroke="#FFFFFF" stroke-width="2.67" stroke-linecap="round" stroke-linejoin="round"/>
</g>
<text id="Check-in" x="264.0" y="349.7" font-family="Segoe UI" font-size="13" font-weight="600" fill="#FFFFFF">Check in</text>
</g>
</g>
<text id="Today-s-visits" x="16.0" y="424.0" font-family="Segoe UI" font-size="15" font-weight="700" fill="#1B1C3A">Today's visits</text>
<text id="Plans" x="298.2" y="424.0" font-family="Segoe UI" font-size="13" font-weight="600" fill="#2F2E80">Plans →</text>
<g id="visit-Kenneth-Lubega">
<rect x="16.0" y="436.0" width="328.0" height="44.0" rx="10" fill="#FFFFFF" stroke="#E4E5EF" stroke-width="1"/>
<circle cx="38.0" cy="458.0" r="11.0" fill="#15925A"/>
<g id="icon-check" transform="translate(32.5 452.5) scale(0.4583)">
<path d="M20 6L9 17l-5-5" fill="none" stroke="#FFFFFF" stroke-width="6.98" stroke-linecap="round" stroke-linejoin="round"/>
</g>
<text id="Kenneth-Lubega" x="58.0" y="455.0" font-family="Segoe UI" font-size="13.5" font-weight="600" fill="#1B1C3A">Kenneth Lubega</text>
<text id="09-05-KYC-captured-letter" x="58.0" y="472.0" font-family="Segoe UI" font-size="11.5" font-weight="400" fill="#7D8099">09:05 · KYC captured, letter pending</text>
</g>
<g id="visit-Betty-Nakimuli">
<rect x="16.0" y="484.0" width="328.0" height="44.0" rx="10" fill="#FFFFFF" stroke="#E4E5EF" stroke-width="1"/>
<circle cx="38.0" cy="506.0" r="11.0" fill="#15925A"/>
<g id="icon-check-2" transform="translate(32.5 500.5) scale(0.4583)">
<path d="M20 6L9 17l-5-5" fill="none" stroke="#FFFFFF" stroke-width="6.98" stroke-linecap="round" stroke-linejoin="round"/>
</g>
<text id="Betty-Nakimuli" x="58.0" y="503.0" font-family="Segoe UI" font-size="13.5" font-weight="600" fill="#1B1C3A">Betty Nakimuli</text>
<text id="10-20-KYC-validated" x="58.0" y="520.0" font-family="Segoe UI" font-size="11.5" font-weight="400" fill="#7D8099">10:20 · KYC validated</text>
</g>
<g id="visit-Florence-Nambi">
<rect x="16.0" y="532.0" width="328.0" height="44.0" rx="10" fill="#FFFFFF" stroke="#E4E5EF" stroke-width="1"/>
<circle cx="38.0" cy="554.0" r="11.0" fill="#2F2E80"/>
<g id="icon-navigation-2" transform="translate(32.0 548.0) scale(0.5000)">
<path d="M3 11l19-9-9 19-2-8z" fill="none" stroke="#FFFFFF" stroke-width="4.40" stroke-linecap="round" stroke-linejoin="round"/>
</g>
<text id="Florence-Nambi-2" x="58.0" y="551.0" font-family="Segoe UI" font-size="13.5" font-weight="600" fill="#1B1C3A">Florence Nambi</text>
<text id="Next-interested-ready-for" x="58.0" y="568.0" font-family="Segoe UI" font-size="11.5" font-weight="400" fill="#7D8099">Next · interested, ready for KYC</text>
</g>
<g id="visit-Ivan-Kasozi">
<rect x="16.0" y="580.0" width="328.0" height="44.0" rx="10" fill="#FFFFFF" stroke="#E4E5EF" stroke-width="1"/>
<circle cx="38.0" cy="602.0" r="11.0" fill="#FFFFFF" stroke="#C4C7D6" stroke-width="2"/>
<g id="icon-clock" transform="translate(31.0 595.0) scale(0.5833)">
<path d="M12 2a10 10 0 1 0 0 20 10 10 0 1 0 0-20z" fill="none" stroke="#7D8099" stroke-width="3.43" stroke-linecap="round" stroke-linejoin="round"/>
<path d="M12 6v6l4 2" fill="none" stroke="#7D8099" stroke-width="3.43" stroke-linecap="round" stroke-linejoin="round"/>
</g>
<text id="Ivan-Kasozi" x="58.0" y="599.0" font-family="Segoe UI" font-size="13.5" font-weight="600" fill="#1B1C3A">Ivan Kasozi</text>
<text id="12-30-negotiation" x="58.0" y="616.0" font-family="Segoe UI" font-size="11.5" font-weight="400" fill="#7D8099">12:30 · negotiation</text>
</g>
<g id="visit-Joseph-Kiggundu">
<rect x="16.0" y="628.0" width="328.0" height="44.0" rx="10" fill="#FFFFFF" stroke="#E4E5EF" stroke-width="1"/>
<circle cx="38.0" cy="650.0" r="11.0" fill="#8A8DA6"/>
<g id="icon-check-3" transform="translate(32.5 644.5) scale(0.4583)">
<path d="M20 6L9 17l-5-5" fill="none" stroke="#FFFFFF" stroke-width="6.98" stroke-linecap="round" stroke-linejoin="round"/>
</g>
<text id="Joseph-Kiggundu" x="58.0" y="647.0" font-family="Segoe UI" font-size="13.5" font-weight="600" fill="#1B1C3A">Joseph Kiggundu</text>
<text id="10-58-new-client-not-int" x="58.0" y="664.0" font-family="Segoe UI" font-size="11.5" font-weight="400" fill="#7D8099">10:58 · new client · not interested</text>
<g id="chip-Off-plan">
<rect x="275.3" y="640.0" width="58.7" height="20.0" rx="10.0" fill="#FCF3E2"/>
<text id="Off-plan" x="285.3" y="653.8" font-family="Segoe UI" font-size="10.5" font-weight="600" fill="#C8880A">Off plan</text>
</g>
</g>
<g id="bottom-navigation">
<rect id="nav-bg" x="0.0" y="724.0" width="360.0" height="76.0" fill="#FFFFFF"/>
<line x1="0.0" y1="724.0" x2="360.0" y2="724.0" stroke="#E4E5EF" stroke-width="1"/>
<g id="tab-Home">
<rect id="indicator" x="8.0" y="732.0" width="56.0" height="30.0" rx="15" fill="#E6E6F0"/>
<g id="icon-home" transform="translate(25.0 736.0) scale(0.9167)">
<path d="M3 9l9-7 9 7v11a2 2 0 0 1-2 2H5a2 2 0 0 1-2-2z" fill="none" stroke="#2F2E80" stroke-width="2.18" stroke-linecap="round" stroke-linejoin="round"/>
<path d="M9 22V12h6v10" fill="none" stroke="#2F2E80" stroke-width="2.18" stroke-linecap="round" stroke-linejoin="round"/>
</g>
<text id="Home" x="20.2" y="776.0" font-family="Segoe UI" font-size="11.5" font-weight="600" fill="#2F2E80">Home</text>
</g>
<g id="tab-Clients">
<g id="icon-users" transform="translate(97.0 736.0) scale(0.9167)">
<path d="M16 21v-2a4 4 0 0 0-4-4H6a4 4 0 0 0-4 4v2" fill="none" stroke="#4B4D6B" stroke-width="2.18" stroke-linecap="round" stroke-linejoin="round"/>
<path d="M9 3a4 4 0 1 0 0 8 4 4 0 1 0 0-8z" fill="none" stroke="#4B4D6B" stroke-width="2.18" stroke-linecap="round" stroke-linejoin="round"/>
<path d="M22 21v-2a4 4 0 0 0-3-3.87" fill="none" stroke="#4B4D6B" stroke-width="2.18" stroke-linecap="round" stroke-linejoin="round"/>
<path d="M16 3.13a4 4 0 0 1 0 7.75" fill="none" stroke="#4B4D6B" stroke-width="2.18" stroke-linecap="round" stroke-linejoin="round"/>
</g>
<text id="Clients" x="91.0" y="776.0" font-family="Segoe UI" font-size="11.5" font-weight="400" fill="#4B4D6B">Clients</text>
</g>
<g id="tab-Visit">
<circle id="visit-button" cx="180.0" cy="722.0" r="27.0" fill="#FBD405" stroke="#FFFFFF" stroke-width="4"/>
<g id="icon-plus" transform="translate(167.0 709.0) scale(1.0833)">
<path d="M12 5v14" fill="none" stroke="#1F1E57" stroke-width="2.40" stroke-linecap="round" stroke-linejoin="round"/>
<path d="M5 12h14" fill="none" stroke="#1F1E57" stroke-width="2.40" stroke-linecap="round" stroke-linejoin="round"/>
</g>
<text id="Visit" x="168.8" y="776.0" font-family="Segoe UI" font-size="11.5" font-weight="600" fill="#4B4D6B">Visit</text>
</g>
<g id="tab-Plans">
<g id="icon-route" transform="translate(241.0 736.0) scale(0.9167)">
<path d="M6 16a3 3 0 1 0 0 6 3 3 0 1 0 0-6z" fill="none" stroke="#4B4D6B" stroke-width="2.18" stroke-linecap="round" stroke-linejoin="round"/>
<path d="M9 19h8.5a3.5 3.5 0 0 0 0-7h-11a3.5 3.5 0 0 1 0-7H15" fill="none" stroke="#4B4D6B" stroke-width="2.18" stroke-linecap="round" stroke-linejoin="round"/>
<path d="M18 2a3 3 0 1 0 0 6 3 3 0 1 0 0-6z" fill="none" stroke="#4B4D6B" stroke-width="2.18" stroke-linecap="round" stroke-linejoin="round"/>
</g>
<text id="Plans-2" x="238.8" y="776.0" font-family="Segoe UI" font-size="11.5" font-weight="400" fill="#4B4D6B">Plans</text>
</g>
<g id="tab-Me">
<g id="icon-user" transform="translate(313.0 736.0) scale(0.9167)">
<path d="M12 3a5 5 0 1 0 0 10 5 5 0 1 0 0-10z" fill="none" stroke="#4B4D6B" stroke-width="2.18" stroke-linecap="round" stroke-linejoin="round"/>
<path d="M20 21a8 8 0 0 0-16 0" fill="none" stroke="#4B4D6B" stroke-width="2.18" stroke-linecap="round" stroke-linejoin="round"/>
</g>
<text id="Me" x="315.8" y="776.0" font-family="Segoe UI" font-size="11.5" font-weight="400" fill="#4B4D6B">Me</text>
</g>
<rect id="gesture-bar" x="126.0" y="792.0" width="108.0" height="4.0" rx="2" fill="#1B1C3A" fill-opacity="0.3"/>
</g>
</svg>
