<svg xmlns="http://www.w3.org/2000/svg" width="360" height="800" viewBox="0 0 360 800">
<title>M7b Joseph: book the next visit</title>
<rect id="screen-background" x="0.0" y="0.0" width="360.0" height="800.0" fill="#FFFFFE"/>
<g id="status-bar">
<text id="10-57" x="16.0" y="18.0" font-family="Segoe UI, Roboto, Helvetica Neue, Arial, sans-serif" font-size="12.5" font-weight="600" fill="#1B1C3A">10:57</text>
<rect id="battery" x="322.0" y="8.0" width="20.0" height="10.0" rx="2" fill="none" stroke="#1B1C3A" stroke-width="1.2"/>
<rect x="324.0" y="10.0" width="13.0" height="6.0" rx="1" fill="#1B1C3A"/>
<rect x="342.5" y="11.0" width="2.0" height="4.0" rx="1" fill="#1B1C3A"/>
<rect id="signal-bar" x="292.0" y="14.0" width="3.0" height="3.0" rx="0.8" fill="#1B1C3A" fill-opacity="1"/>
<rect id="signal-bar-2" x="297.0" y="11.8" width="3.0" height="5.2" rx="0.8" fill="#1B1C3A" fill-opacity="1"/>
<rect id="signal-bar-3" x="302.0" y="9.6" width="3.0" height="7.4" rx="0.8" fill="#1B1C3A" fill-opacity="1"/>
<rect id="signal-bar-4" x="307.0" y="7.4" width="3.0" height="9.6" rx="0.8" fill="#1B1C3A" fill-opacity="0.3"/>
<text id="network" x="270.5" y="18.0" font-family="Segoe UI, Roboto, Helvetica Neue, Arial, sans-serif" font-size="10.5" font-weight="700" fill="#1B1C3A">4G</text>
</g>
<g id="app-bar">
<rect id="app-bar-bg" x="0.0" y="24.0" width="360.0" height="56.0" fill="#FFFFFE"/>
<line x1="0.0" y1="80.0" x2="360.0" y2="80.0" stroke="#E4E5EF" stroke-width="1"/>
<g id="icon-arrowleft" transform="translate(16.0 40.0) scale(1.0000)">
<path d="M19 12H5" fill="none" stroke="#1B1C3A" stroke-width="2.00" stroke-linecap="round" stroke-linejoin="round"/>
<path d="M12 19l-7-7 7-7" fill="none" stroke="#1B1C3A" stroke-width="2.00" stroke-linecap="round" stroke-linejoin="round"/>
</g>
<text id="Next-visit-Joseph-Kiggundu" x="56.0" y="48.0" font-family="Segoe UI, Roboto, Helvetica Neue, Arial, sans-serif" font-size="16.5" font-weight="600" fill="#1B1C3A">Next visit · Joseph Kiggundu</text>
<text id="Kiggundu-Hardware-Ntinda" x="56.0" y="67.0" font-family="Segoe UI, Roboto, Helvetica Neue, Arial, sans-serif" font-size="12" font-weight="400" fill="#7D8099">Kiggundu Hardware · Ntinda</text>
</g>
<g id="visit-in-progress">
<rect x="0.0" y="80.0" width="360.0" height="30.0" fill="#E3F2EB"/>
<circle cx="22.0" cy="95.0" r="4.5" fill="#15925A"/>
<text id="Visit-in-progress-checked" x="34.0" y="99.5" font-family="Segoe UI, Roboto, Helvetica Neue, Arial, sans-serif" font-size="12" font-weight="600" fill="#0E6B41">Visit in progress · checked in 10:52 · GPS ±7 m</text>
</g>
<text id="What-is-the-next-visit-for" x="16.0" y="128.0" font-family="Segoe UI, Roboto, Helvetica Neue, Arial, sans-serif" font-size="14.5" font-weight="700" fill="#1B1C3A">What is the next visit for?</text>
<rect x="16.0" y="140.0" width="328.0" height="52.0" rx="12" fill="#F5F3FC" stroke="#7056D6" stroke-width="2"/>
<g id="radio">
<circle cx="38.0" cy="166.0" r="9.0" fill="#FFFFFE" stroke="#7056D6" stroke-width="1.8"/>
<circle cx="38.0" cy="166.0" r="4.5" fill="#7056D6"/>
</g>
<text id="Take-KYC" x="58.0" y="162.0" font-family="Segoe UI, Roboto, Helvetica Neue, Arial, sans-serif" font-size="13.5" font-weight="600" fill="#1B1C3A">Take KYC</text>
<text id="He-s-interested-bring-the-d" x="58.0" y="180.0" font-family="Segoe UI, Roboto, Helvetica Neue, Arial, sans-serif" font-size="11.5" font-weight="400" fill="#7D8099">He's interested; bring the documents</text>
<rect x="16.0" y="198.0" width="328.0" height="52.0" rx="12" fill="#FFFFFE" stroke="#E4E5EF" stroke-width="1"/>
<g id="radio-2">
<circle cx="38.0" cy="224.0" r="9.0" fill="#FFFFFE" stroke="#C4C7D6" stroke-width="1.8"/>
</g>
<text id="Follow-up" x="58.0" y="220.0" font-family="Segoe UI, Roboto, Helvetica Neue, Arial, sans-serif" font-size="13.5" font-weight="600" fill="#1B1C3A">Follow up</text>
<text id="He-needs-time-to-think" x="58.0" y="238.0" font-family="Segoe UI, Roboto, Helvetica Neue, Arial, sans-serif" font-size="11.5" font-weight="400" fill="#7D8099">He needs time to think</text>
<g id="field-Date">
<text id="label" x="16.0" y="276.0" font-family="Segoe UI, Roboto, Helvetica Neue, Arial, sans-serif" font-size="13" font-weight="600" fill="#4B4D6B">Date</text>
<text id="required" x="47.6" y="276.0" font-family="Segoe UI, Roboto, Helvetica Neue, Arial, sans-serif" font-size="13" font-weight="600" fill="#C2362F">*</text>
<rect id="input" x="16.0" y="284.0" width="159.0" height="42.0" rx="12" fill="#FFFFFE" stroke="#CDD0DE" stroke-width="1"/>
<g id="icon-calendar" transform="translate(28.0 296.0) scale(0.7500)">
<path d="M5 4h14a2 2 0 0 1 2 2v14a2 2 0 0 1-2 2H5a2 2 0 0 1-2-2V6a2 2 0 0 1 2-2z" fill="none" stroke="#7D8099" stroke-width="2.40" stroke-linecap="round" stroke-linejoin="round"/>
<path d="M16 2v4" fill="none" stroke="#7D8099" stroke-width="2.40" stroke-linecap="round" stroke-linejoin="round"/>
<path d="M8 2v4" fill="none" stroke="#7D8099" stroke-width="2.40" stroke-linecap="round" stroke-linejoin="round"/>
<path d="M3 10h18" fill="none" stroke="#7D8099" stroke-width="2.40" stroke-linecap="round" stroke-linejoin="round"/>
</g>
<text id="value" x="56.0" y="309.9" font-family="Segoe UI, Roboto, Helvetica Neue, Arial, sans-serif" font-size="13.5" font-weight="400" fill="#1B1C3A">Fri 2 Oct</text>
</g>
<g id="field-Time">
<text id="label-2" x="185.0" y="276.0" font-family="Segoe UI, Roboto, Helvetica Neue, Arial, sans-serif" font-size="13" font-weight="600" fill="#4B4D6B">Time</text>
<rect id="input-2" x="185.0" y="284.0" width="159.0" height="42.0" rx="12" fill="#FFFFFE" stroke="#CDD0DE" stroke-width="1"/>
<g id="icon-clock" transform="translate(197.0 296.0) scale(0.7500)">
<path d="M12 2a10 10 0 1 0 0 20 10 10 0 1 0 0-20z" fill="none" stroke="#7D8099" stroke-width="2.40" stroke-linecap="round" stroke-linejoin="round"/>
<path d="M12 6v6l4 2" fill="none" stroke="#7D8099" stroke-width="2.40" stroke-linecap="round" stroke-linejoin="round"/>
</g>
<text id="value-2" x="225.0" y="309.9" font-family="Segoe UI, Roboto, Helvetica Neue, Arial, sans-serif" font-size="13.5" font-weight="400" fill="#1B1C3A">10:00</text>
</g>
<text id="Ask-him-to-have-ready" x="16.0" y="356.0" font-family="Segoe UI, Roboto, Helvetica Neue, Arial, sans-serif" font-size="13" font-weight="600" fill="#4B4D6B">Ask him to have ready</text>
<g id="pill-National-ID">
<rect x="16.0" y="364.0" width="102.5" height="30.0" rx="15.0" fill="#EAEAF2" stroke="#2F2E80" stroke-width="1"/>
<g id="icon-check" transform="translate(27.0 372.0) scale(0.5833)">
<path d="M20 6L9 17l-5-5" fill="none" stroke="#2F2E80" stroke-width="4.46" stroke-linecap="round" stroke-linejoin="round"/>
</g>
<text id="National-ID" x="45.0" y="383.5" font-family="Segoe UI, Roboto, Helvetica Neue, Arial, sans-serif" font-size="12.5" font-weight="600" fill="#2F2E80">National ID</text>
</g>
<g id="pill-Trading-licence">
<rect x="126.5" y="364.0" width="122.9" height="30.0" rx="15.0" fill="#EAEAF2" stroke="#2F2E80" stroke-width="1"/>
<g id="icon-check-2" transform="translate(137.5 372.0) scale(0.5833)">
<path d="M20 6L9 17l-5-5" fill="none" stroke="#2F2E80" stroke-width="4.46" stroke-linecap="round" stroke-linejoin="round"/>
</g>
<text id="Trading-licence" x="155.5" y="383.5" font-family="Segoe UI, Roboto, Helvetica Neue, Arial, sans-serif" font-size="12.5" font-weight="600" fill="#2F2E80">Trading licence</text>
</g>
<g id="pill-Sales-book">
<rect x="16.0" y="402.0" width="99.1" height="30.0" rx="15.0" fill="#EAEAF2" stroke="#2F2E80" stroke-width="1"/>
<g id="icon-check-3" transform="translate(27.0 410.0) scale(0.5833)">
<path d="M20 6L9 17l-5-5" fill="none" stroke="#2F2E80" stroke-width="4.46" stroke-linecap="round" stroke-linejoin="round"/>
</g>
<text id="Sales-book" x="45.0" y="421.5" font-family="Segoe UI, Roboto, Helvetica Neue, Arial, sans-serif" font-size="12.5" font-weight="600" fill="#2F2E80">Sales book</text>
</g>
<g id="pill-Collateral-papers">
<rect x="123.1" y="402.0" width="121.4" height="30.0" rx="15.0" fill="#FFFFFE" stroke="#CDD0DE" stroke-width="1"/>
<text id="Collateral-papers" x="136.1" y="421.5" font-family="Segoe UI, Roboto, Helvetica Neue, Arial, sans-serif" font-size="12.5" font-weight="600" fill="#4B4D6B">Collateral papers</text>
</g>
<g id="add-to-plan">
<rect x="16.0" y="448.0" width="328.0" height="56.0" rx="12" fill="#F5F5FB"/>
<g id="icon-route" transform="translate(30.0 465.0) scale(0.8333)">
<path d="M6 16a3 3 0 1 0 0 6 3 3 0 1 0 0-6z" fill="none" stroke="#2F2E80" stroke-width="2.40" stroke-linecap="round" stroke-linejoin="round"/>
<path d="M9 19h8.5a3.5 3.5 0 0 0 0-7h-11a3.5 3.5 0 0 1 0-7H15" fill="none" stroke="#2F2E80" stroke-width="2.40" stroke-linecap="round" stroke-linejoin="round"/>
<path d="M18 2a3 3 0 1 0 0 6 3 3 0 1 0 0-6z" fill="none" stroke="#2F2E80" stroke-width="2.40" stroke-linecap="round" stroke-linejoin="round"/>
</g>
<text id="Add-to-a-journey-plan" x="60.0" y="472.0" font-family="Segoe UI, Roboto, Helvetica Neue, Arial, sans-serif" font-size="13.5" font-weight="600" fill="#1B1C3A">Add to a journey plan</text>
<text id="Kiwatule-follow-ups" x="60.0" y="490.0" font-family="Segoe UI, Roboto, Helvetica Neue, Arial, sans-serif" font-size="11.5" font-weight="400" fill="#7D8099">Kiwatule follow-ups</text>
<g id="toggle">
<rect x="294.0" y="466.0" width="36.0" height="20.0" rx="10" fill="#2F2E80"/>
<circle cx="320.0" cy="476.0" r="7.5" fill="#FFFFFF"/>
</g>
</g>
<g id="footer">
<rect x="0.0" y="716.0" width="360.0" height="84.0" fill="#FFFFFE"/>
<line x1="0.0" y1="716.0" x2="360.0" y2="716.0" stroke="#E4E5EF" stroke-width="1"/>
<g id="button-Check-out">
<rect x="16.0" y="730.0" width="328.0" height="48.0" rx="12" fill="#2F2E80"/>
<g id="icon-logout" transform="translate(135.2 745.0) scale(0.7500)">
<path d="M9 21H5a2 2 0 0 1-2-2V5a2 2 0 0 1 2-2h4" fill="none" stroke="#FFFFFF" stroke-width="2.67" stroke-linecap="round" stroke-linejoin="round"/>
<path d="M16 17l5-5-5-5" fill="none" stroke="#FFFFFF" stroke-width="2.67" stroke-linecap="round" stroke-linejoin="round"/>
<path d="M21 12H9" fill="none" stroke="#FFFFFF" stroke-width="2.67" stroke-linecap="round" stroke-linejoin="round"/>
</g>
<text id="Check-out" x="161.2" y="759.0" font-family="Segoe UI, Roboto, Helvetica Neue, Arial, sans-serif" font-size="14" font-weight="600" fill="#FFFFFF">Check out</text>
</g>
</g>
<rect id="gesture-bar" x="126.0" y="792.0" width="108.0" height="4.0" rx="2" fill="#1B1C3A" fill-opacity="0.45"/>
</svg>
