<svg xmlns="http://www.w3.org/2000/svg" width="360" height="800" viewBox="0 0 360 800">
<title>M17 My leads: where they are now</title>
<defs><filter id="soft" x="-20%" y="-20%" width="140%" height="170%"><feDropShadow dx="0" dy="6" stdDeviation="9" flood-color="#1B1C3A" flood-opacity="0.07"/></filter></defs>
<rect id="screen-background" x="0.0" y="0.0" width="360.0" height="800.0" fill="#121319"/>
<g id="status-bar">
<text id="14-26" x="16.0" y="18.0" font-family="Segoe UI, Roboto, Helvetica Neue, Arial, sans-serif" font-size="12.5" font-weight="600" fill="#CBCCE7">14:26</text>
<rect id="battery" x="322.0" y="8.0" width="20.0" height="10.0" rx="2" fill="none" stroke="#CBCCE7" stroke-width="1.2"/>
<rect x="324.0" y="10.0" width="13.0" height="6.0" rx="1" fill="#1B1C3A"/>
<rect x="342.5" y="11.0" width="2.0" height="4.0" rx="1" fill="#1B1C3A"/>
<rect id="signal-bar" x="292.0" y="14.0" width="3.0" height="3.0" rx="0.8" fill="#1B1C3A" fill-opacity="1"/>
<rect id="signal-bar-2" x="297.0" y="11.8" width="3.0" height="5.2" rx="0.8" fill="#1B1C3A" fill-opacity="1"/>
<rect id="signal-bar-3" x="302.0" y="9.6" width="3.0" height="7.4" rx="0.8" fill="#1B1C3A" fill-opacity="1"/>
<rect id="signal-bar-4" x="307.0" y="7.4" width="3.0" height="9.6" rx="0.8" fill="#1B1C3A" fill-opacity="0.3"/>
<text id="network" x="270.5" y="18.0" font-family="Segoe UI, Roboto, Helvetica Neue, Arial, sans-serif" font-size="10.5" font-weight="700" fill="#CBCCE7">4G</text>
</g>
<g id="app-bar">
<rect id="app-bar-bg" x="0.0" y="24.0" width="360.0" height="56.0" fill="#1D1E27"/>
<line x1="0.0" y1="80.0" x2="360.0" y2="80.0" stroke="#282932" stroke-width="1"/>
<text id="My-leads" x="16.0" y="48.0" font-family="Segoe UI, Roboto, Helvetica Neue, Arial, sans-serif" font-size="16.5" font-weight="600" fill="#CBCCE7">My leads</text>
<text id="286-this-quarter-31-became" x="16.0" y="67.0" font-family="Segoe UI, Roboto, Helvetica Neue, Arial, sans-serif" font-size="12" font-weight="400" fill="#9396AA">286 this quarter · 31 became clients</text>
</g>
<g id="filter-chips">
<rect x="16.0" y="94.0" width="56.6" height="32.0" rx="16" fill="#4F4CC9"/>
<text id="All-14" x="29.0" y="114.5" font-family="Segoe UI, Roboto, Helvetica Neue, Arial, sans-serif" font-size="12.5" font-weight="600" fill="#FFFFFF">All 14</text>
<rect x="80.6" y="94.0" width="80.4" height="32.0" rx="16" fill="#1D1E27" stroke="#393B45" stroke-width="1"/>
<text id="Waiting-3" x="93.6" y="114.5" font-family="Segoe UI, Roboto, Helvetica Neue, Arial, sans-serif" font-size="12.5" font-weight="600" fill="#B0B1C7">Waiting 3</text>
<rect x="169.0" y="94.0" width="91.2" height="32.0" rx="16" fill="#1D1E27" stroke="#393B45" stroke-width="1"/>
<text id="On-a-plan-6" x="182.0" y="114.5" font-family="Segoe UI, Roboto, Helvetica Neue, Arial, sans-serif" font-size="12.5" font-weight="600" fill="#B0B1C7">On a plan 6</text>
<rect x="268.1" y="94.0" width="58.7" height="32.0" rx="16" fill="#1D1E27" stroke="#393B45" stroke-width="1"/>
<text id="KYC-3" x="281.1" y="114.5" font-family="Segoe UI, Roboto, Helvetica Neue, Arial, sans-serif" font-size="12.5" font-weight="600" fill="#B0B1C7">KYC 3</text>
</g>
<g id="lead-Aisha-Nalubega">
<rect x="16.0" y="140.0" width="328.0" height="80.0" rx="12" fill="#1D1E27" filter="url(#soft)"/>
<rect x="16.0" y="152.0" width="4.0" height="56.0" rx="2" fill="#2F6FDB"/>
<text id="Aisha-Nalubega" x="34.0" y="166.0" font-family="Segoe UI, Roboto, Helvetica Neue, Arial, sans-serif" font-size="14.5" font-weight="600" fill="#CBCCE7">Aisha Nalubega</text>
<g id="chip-Lead">
<rect x="274.4" y="152.0" width="57.6" height="22.0" rx="11.0" fill="#1A2433"/>
<circle cx="288.4" cy="163.0" r="4.0" fill="#2F6FDB"/>
<text id="Lead" x="298.4" y="167.0" font-family="Segoe UI, Roboto, Helvetica Neue, Arial, sans-serif" font-size="11" font-weight="600" fill="#769FE2">Lead</text>
</g>
<text id="UGX-2-000-000" x="34.0" y="186.0" font-family="Segoe UI, Roboto, Helvetica Neue, Arial, sans-serif" font-size="12" font-weight="600" fill="#B0B1C7">UGX 2,000,000</text>
<g id="icon-clock" transform="translate(34.0 195.0) scale(0.5833)">
<path d="M12 2a10 10 0 1 0 0 20 10 10 0 1 0 0-20z" fill="none" stroke="#9396AA" stroke-width="3.43" stroke-linecap="round" stroke-linejoin="round"/>
<path d="M12 6v6l4 2" fill="none" stroke="#9396AA" stroke-width="3.43" stroke-linecap="round" stroke-linejoin="round"/>
</g>
<text id="Created-today-14-25-waitin" x="54.0" y="207.0" font-family="Segoe UI, Roboto, Helvetica Neue, Arial, sans-serif" font-size="12" font-weight="400" fill="#9396AA">Created today 14:25 · waiting for a lead journey plan</text>
</g>
<g id="lead-Florence-Nambi">
<rect x="16.0" y="228.0" width="328.0" height="80.0" rx="12" fill="#1D1E27" filter="url(#soft)"/>
<rect x="16.0" y="240.0" width="4.0" height="56.0" rx="2" fill="#15925A"/>
<text id="Florence-Nambi" x="34.0" y="254.0" font-family="Segoe UI, Roboto, Helvetica Neue, Arial, sans-serif" font-size="14.5" font-weight="600" fill="#CBCCE7">Florence Nambi</text>
<g id="chip-KYC-completed">
<rect x="222.1" y="240.0" width="109.9" height="22.0" rx="11.0" fill="#25332C"/>
<circle cx="236.1" cy="251.0" r="4.0" fill="#15925A"/>
<text id="KYC-completed" x="246.1" y="255.0" font-family="Segoe UI, Roboto, Helvetica Neue, Arial, sans-serif" font-size="11" font-weight="600" fill="#9CF1CB">KYC completed</text>
</g>
<text id="UGX-6-000-000" x="34.0" y="274.0" font-family="Segoe UI, Roboto, Helvetica Neue, Arial, sans-serif" font-size="12" font-weight="600" fill="#B0B1C7">UGX 6,000,000</text>
<g id="icon-clock-2" transform="translate(34.0 283.0) scale(0.5833)">
<path d="M12 2a10 10 0 1 0 0 20 10 10 0 1 0 0-20z" fill="none" stroke="#9396AA" stroke-width="3.43" stroke-linecap="round" stroke-linejoin="round"/>
<path d="M12 6v6l4 2" fill="none" stroke="#9396AA" stroke-width="3.43" stroke-linecap="round" stroke-linejoin="round"/>
</g>
<text id="Joel-Byaruhanga-today-11-2" x="54.0" y="295.0" font-family="Segoe UI, Roboto, Helvetica Neue, Arial, sans-serif" font-size="12" font-weight="400" fill="#9396AA">Joel Byaruhanga · today 11:24 · loan sent</text>
</g>
<g id="lead-Betty-Nakimuli">
<rect x="16.0" y="316.0" width="328.0" height="80.0" rx="12" fill="#1D1E27" filter="url(#soft)"/>
<rect x="16.0" y="328.0" width="4.0" height="56.0" rx="2" fill="#15925A"/>
<text id="Betty-Nakimuli" x="34.0" y="342.0" font-family="Segoe UI, Roboto, Helvetica Neue, Arial, sans-serif" font-size="14.5" font-weight="600" fill="#CBCCE7">Betty Nakimuli</text>
<g id="chip-Client">
<rect x="269.2" y="328.0" width="62.8" height="22.0" rx="11.0" fill="#25332C"/>
<circle cx="283.2" cy="339.0" r="4.0" fill="#15925A"/>
<text id="Client" x="293.2" y="343.0" font-family="Segoe UI, Roboto, Helvetica Neue, Arial, sans-serif" font-size="11" font-weight="600" fill="#9CF1CB">Client</text>
</g>
<text id="UGX-2-000-000-2" x="34.0" y="362.0" font-family="Segoe UI, Roboto, Helvetica Neue, Arial, sans-serif" font-size="12" font-weight="600" fill="#B0B1C7">UGX 2,000,000</text>
<g id="icon-clock-3" transform="translate(34.0 371.0) scale(0.5833)">
<path d="M12 2a10 10 0 1 0 0 20 10 10 0 1 0 0-20z" fill="none" stroke="#9396AA" stroke-width="3.43" stroke-linecap="round" stroke-linejoin="round"/>
<path d="M12 6v6l4 2" fill="none" stroke="#9396AA" stroke-width="3.43" stroke-linecap="round" stroke-linejoin="round"/>
</g>
<text id="Loan-disbursed-today-KYC-b" x="54.0" y="383.0" font-family="Segoe UI, Roboto, Helvetica Neue, Arial, sans-serif" font-size="12" font-weight="400" fill="#9396AA">Loan disbursed today · KYC by Joel</text>
</g>
<g id="lead-Ivan-Kasozi">
<rect x="16.0" y="404.0" width="328.0" height="80.0" rx="12" fill="#1D1E27" filter="url(#soft)"/>
<rect x="16.0" y="416.0" width="4.0" height="56.0" rx="2" fill="#4F4CC9"/>
<text id="Ivan-Kasozi" x="34.0" y="430.0" font-family="Segoe UI, Roboto, Helvetica Neue, Arial, sans-serif" font-size="14.5" font-weight="600" fill="#CBCCE7">Ivan Kasozi</text>
<g id="chip-On-a-lead-journey-plan">
<rect x="184.9" y="416.0" width="147.1" height="22.0" rx="11.0" fill="#272730"/>
<circle cx="198.9" cy="427.0" r="4.0" fill="#4F4CC9"/>
<text id="On-a-lead-journey-plan" x="208.9" y="431.0" font-family="Segoe UI, Roboto, Helvetica Neue, Arial, sans-serif" font-size="11" font-weight="600" fill="#A9A8E0">On a lead journey plan</text>
</g>
<text id="UGX-3-000-000" x="34.0" y="450.0" font-family="Segoe UI, Roboto, Helvetica Neue, Arial, sans-serif" font-size="12" font-weight="600" fill="#B0B1C7">UGX 3,000,000</text>
<g id="icon-clock-4" transform="translate(34.0 459.0) scale(0.5833)">
<path d="M12 2a10 10 0 1 0 0 20 10 10 0 1 0 0-20z" fill="none" stroke="#9396AA" stroke-width="3.43" stroke-linecap="round" stroke-linejoin="round"/>
<path d="M12 6v6l4 2" fill="none" stroke="#9396AA" stroke-width="3.43" stroke-linecap="round" stroke-linejoin="round"/>
</g>
<text id="Joel-visit-today-12-30" x="54.0" y="471.0" font-family="Segoe UI, Roboto, Helvetica Neue, Arial, sans-serif" font-size="12" font-weight="400" fill="#9396AA">Joel · visit today 12:30</text>
</g>
<g id="lead-Charles-Ssempijja">
<rect x="16.0" y="492.0" width="328.0" height="80.0" rx="12" fill="#1D1E27" filter="url(#soft)"/>
<rect x="16.0" y="504.0" width="4.0" height="56.0" rx="2" fill="#4F4CC9"/>
<text id="Charles-Ssempijja" x="34.0" y="518.0" font-family="Segoe UI, Roboto, Helvetica Neue, Arial, sans-serif" font-size="14.5" font-weight="600" fill="#CBCCE7">Charles Ssempijja</text>
<g id="chip-On-a-lead-journey-plan-2">
<rect x="184.9" y="504.0" width="147.1" height="22.0" rx="11.0" fill="#272730"/>
<circle cx="198.9" cy="515.0" r="4.0" fill="#4F4CC9"/>
<text id="On-a-lead-journey-plan-2" x="208.9" y="519.0" font-family="Segoe UI, Roboto, Helvetica Neue, Arial, sans-serif" font-size="11" font-weight="600" fill="#A9A8E0">On a lead journey plan</text>
</g>
<text id="UGX-3-000-000-2" x="34.0" y="538.0" font-family="Segoe UI, Roboto, Helvetica Neue, Arial, sans-serif" font-size="12" font-weight="600" fill="#B0B1C7">UGX 3,000,000</text>
<g id="icon-clock-5" transform="translate(34.0 547.0) scale(0.5833)">
<path d="M12 2a10 10 0 1 0 0 20 10 10 0 1 0 0-20z" fill="none" stroke="#9396AA" stroke-width="3.43" stroke-linecap="round" stroke-linejoin="round"/>
<path d="M12 6v6l4 2" fill="none" stroke="#9396AA" stroke-width="3.43" stroke-linecap="round" stroke-linejoin="round"/>
</g>
<text id="Joel-visit-Thu-1-Oct" x="54.0" y="559.0" font-family="Segoe UI, Roboto, Helvetica Neue, Arial, sans-serif" font-size="12" font-weight="400" fill="#9396AA">Joel · visit Thu 1 Oct</text>
</g>
<g id="lead-Kenneth-Lubega">
<rect x="16.0" y="580.0" width="328.0" height="80.0" rx="12" fill="#1D1E27" filter="url(#soft)"/>
<rect x="16.0" y="592.0" width="4.0" height="56.0" rx="2" fill="#2F6FDB"/>
<text id="Kenneth-Lubega" x="34.0" y="606.0" font-family="Segoe UI, Roboto, Helvetica Neue, Arial, sans-serif" font-size="14.5" font-weight="600" fill="#CBCCE7">Kenneth Lubega</text>
<g id="chip-Follow-up">
<rect x="247.8" y="592.0" width="84.2" height="22.0" rx="11.0" fill="#1A2433"/>
<circle cx="261.8" cy="603.0" r="4.0" fill="#2F6FDB"/>
<text id="Follow-up" x="271.8" y="607.0" font-family="Segoe UI, Roboto, Helvetica Neue, Arial, sans-serif" font-size="11" font-weight="600" fill="#769FE2">Follow-up</text>
</g>
<text id="UGX-4-000-000" x="34.0" y="626.0" font-family="Segoe UI, Roboto, Helvetica Neue, Arial, sans-serif" font-size="12" font-weight="600" fill="#B0B1C7">UGX 4,000,000</text>
<g id="icon-clock-6" transform="translate(34.0 635.0) scale(0.5833)">
<path d="M12 2a10 10 0 1 0 0 20 10 10 0 1 0 0-20z" fill="none" stroke="#9396AA" stroke-width="3.43" stroke-linecap="round" stroke-linejoin="round"/>
<path d="M12 6v6l4 2" fill="none" stroke="#9396AA" stroke-width="3.43" stroke-linecap="round" stroke-linejoin="round"/>
</g>
<text id="Joel-visited-employer-lett" x="54.0" y="647.0" font-family="Segoe UI, Roboto, Helvetica Neue, Arial, sans-serif" font-size="12" font-weight="400" fill="#9396AA">Joel visited · employer letter pending</text>
</g>
<g id="bottom-navigation">
<rect id="nav-bg" x="12.0" y="716.0" width="336.0" height="64.0" rx="24" fill="#1D1E27" filter="url(#soft)"/>
<g id="tab-Home">
<g id="icon-home" transform="translate(43.0 729.0) scale(0.9167)">
<path d="M3 9l9-7 9 7v11a2 2 0 0 1-2 2H5a2 2 0 0 1-2-2z" fill="none" stroke="#9A9CB0" stroke-width="2.18" stroke-linecap="round" stroke-linejoin="round"/>
<path d="M9 22V12h6v10" fill="none" stroke="#9A9CB0" stroke-width="2.18" stroke-linecap="round" stroke-linejoin="round"/>
</g>
<text id="Home" x="39.3" y="769.0" font-family="Segoe UI, Roboto, Helvetica Neue, Arial, sans-serif" font-size="11" font-weight="400" fill="#898CA5">Home</text>
</g>
<g id="tab-Prospects">
<g id="icon-users" transform="translate(127.0 729.0) scale(0.9167)">
<path d="M16 21v-2a4 4 0 0 0-4-4H6a4 4 0 0 0-4 4v2" fill="none" stroke="#9A9CB0" stroke-width="2.18" stroke-linecap="round" stroke-linejoin="round"/>
<path d="M9 3a4 4 0 1 0 0 8 4 4 0 1 0 0-8z" fill="none" stroke="#9A9CB0" stroke-width="2.18" stroke-linecap="round" stroke-linejoin="round"/>
<path d="M22 21v-2a4 4 0 0 0-3-3.87" fill="none" stroke="#9A9CB0" stroke-width="2.18" stroke-linecap="round" stroke-linejoin="round"/>
<path d="M16 3.13a4 4 0 0 1 0 7.75" fill="none" stroke="#9A9CB0" stroke-width="2.18" stroke-linecap="round" stroke-linejoin="round"/>
</g>
<text id="Prospects" x="114.6" y="769.0" font-family="Segoe UI, Roboto, Helvetica Neue, Arial, sans-serif" font-size="11" font-weight="400" fill="#898CA5">Prospects</text>
</g>
<g id="tab-Leads">
<rect id="indicator" x="198.0" y="725.0" width="48.0" height="30.0" rx="15" fill="#24242D"/>
<g id="icon-flag" transform="translate(211.0 729.0) scale(0.9167)">
<path d="M4 15s1-1 4-1 5 2 8 2 4-1 4-1V3s-1 1-4 1-5-2-8-2-4 1-4 1z" fill="none" stroke="#A09FDD" stroke-width="2.18" stroke-linecap="round" stroke-linejoin="round"/>
<path d="M4 22v-7" fill="none" stroke="#A09FDD" stroke-width="2.18" stroke-linecap="round" stroke-linejoin="round"/>
</g>
<text id="Leads" x="207.4" y="769.0" font-family="Segoe UI, Roboto, Helvetica Neue, Arial, sans-serif" font-size="11" font-weight="700" fill="#A09FDD">Leads</text>
</g>
<g id="tab-Me">
<g id="icon-user" transform="translate(295.0 729.0) scale(0.9167)">
<path d="M12 3a5 5 0 1 0 0 10 5 5 0 1 0 0-10z" fill="none" stroke="#9A9CB0" stroke-width="2.18" stroke-linecap="round" stroke-linejoin="round"/>
<path d="M20 21a8 8 0 0 0-16 0" fill="none" stroke="#9A9CB0" stroke-width="2.18" stroke-linecap="round" stroke-linejoin="round"/>
</g>
<text id="Me" x="298.2" y="769.0" font-family="Segoe UI, Roboto, Helvetica Neue, Arial, sans-serif" font-size="11" font-weight="400" fill="#898CA5">Me</text>
</g>
</g>
<rect id="gesture-bar" x="126.0" y="792.0" width="108.0" height="4.0" rx="2" fill="#1B1C3A" fill-opacity="0.3"/>
</svg>
