<svg xmlns="http://www.w3.org/2000/svg" width="360" height="800" viewBox="0 0 360 800">
<title>M18 Florence: client record</title>
<defs><filter id="soft" x="-20%" y="-20%" width="140%" height="170%"><feDropShadow dx="0" dy="6" stdDeviation="9" flood-color="#1B1C3A" flood-opacity="0.07"/></filter></defs>
<rect id="screen-background" x="0.0" y="0.0" width="360.0" height="800.0" fill="#121319"/>
<g id="status-bar">
<text id="11-53" x="16.0" y="18.0" font-family="Segoe UI, Roboto, Helvetica Neue, Arial, sans-serif" font-size="12.5" font-weight="600" fill="#CBCCE7">11:53</text>
<rect id="battery" x="322.0" y="8.0" width="20.0" height="10.0" rx="2" fill="none" stroke="#CBCCE7" stroke-width="1.2"/>
<rect x="324.0" y="10.0" width="13.0" height="6.0" rx="1" fill="#1B1C3A"/>
<rect x="342.5" y="11.0" width="2.0" height="4.0" rx="1" fill="#1B1C3A"/>
<rect id="signal-bar" x="292.0" y="14.0" width="3.0" height="3.0" rx="0.8" fill="#1B1C3A" fill-opacity="1"/>
<rect id="signal-bar-2" x="297.0" y="11.8" width="3.0" height="5.2" rx="0.8" fill="#1B1C3A" fill-opacity="1"/>
<rect id="signal-bar-3" x="302.0" y="9.6" width="3.0" height="7.4" rx="0.8" fill="#1B1C3A" fill-opacity="1"/>
<rect id="signal-bar-4" x="307.0" y="7.4" width="3.0" height="9.6" rx="0.8" fill="#1B1C3A" fill-opacity="0.3"/>
<text id="network" x="270.5" y="18.0" font-family="Segoe UI, Roboto, Helvetica Neue, Arial, sans-serif" font-size="10.5" font-weight="700" fill="#CBCCE7">4G</text>
</g>
<g id="app-bar">
<rect id="app-bar-bg" x="0.0" y="24.0" width="360.0" height="56.0" fill="#1D1E27"/>
<line x1="0.0" y1="80.0" x2="360.0" y2="80.0" stroke="#282932" stroke-width="1"/>
<g id="icon-arrowleft" transform="translate(16.0 40.0) scale(1.0000)">
<path d="M19 12H5" fill="none" stroke="#CBCCE7" stroke-width="2.00" stroke-linecap="round" stroke-linejoin="round"/>
<path d="M12 19l-7-7 7-7" fill="none" stroke="#CBCCE7" stroke-width="2.00" stroke-linecap="round" stroke-linejoin="round"/>
</g>
<text id="Florence-Nambi" x="56.0" y="48.0" font-family="Segoe UI, Roboto, Helvetica Neue, Arial, sans-serif" font-size="16.5" font-weight="600" fill="#CBCCE7">Florence Nambi</text>
<text id="Kiwatule-market-route" x="56.0" y="67.0" font-family="Segoe UI, Roboto, Helvetica Neue, Arial, sans-serif" font-size="12" font-weight="400" fill="#9396AA">Kiwatule market route</text>
</g>
<g id="icon-phone" transform="translate(320.0 40.0) scale(0.9167)">
<path d="M7 2h10a2 2 0 0 1 2 2v16a2 2 0 0 1-2 2H7a2 2 0 0 1-2-2V4a2 2 0 0 1 2-2z" fill="none" stroke="#CBCCE7" stroke-width="2.18" stroke-linecap="round" stroke-linejoin="round"/>
<path d="M12 18h.01" fill="none" stroke="#CBCCE7" stroke-width="2.18" stroke-linecap="round" stroke-linejoin="round"/>
</g>
<g id="icon-navigation" transform="translate(280.0 40.0) scale(0.9167)">
<path d="M3 11l19-9-9 19-2-8z" fill="none" stroke="#CBCCE7" stroke-width="2.18" stroke-linecap="round" stroke-linejoin="round"/>
</g>
<g id="client-header">
<rect x="16.0" y="92.0" width="328.0" height="84.0" rx="18" fill="#1D1E27" filter="url(#soft)"/>
<g id="avatar-FN">
<circle cx="50.0" cy="134.0" r="22.0" fill="#2A3A33"/>
<text id="FN" x="38.9" y="141.9" font-family="Segoe UI, Roboto, Helvetica Neue, Arial, sans-serif" font-size="17.6" font-weight="600" fill="#9AF0CA">FN</text>
</g>
<text id="Nambi-Tailoring-Fabrics" x="82.0" y="124.0" font-family="Segoe UI, Roboto, Helvetica Neue, Arial, sans-serif" font-size="14" font-weight="700" fill="#CBCCE7">Nambi Tailoring &amp; Fabrics</text>
<g id="chip-Applied">
<rect x="82.0" y="136.0" width="72.9" height="22.0" rx="11.0" fill="#25332C"/>
<circle cx="96.0" cy="147.0" r="4.0" fill="#15925A"/>
<text id="Applied" x="106.0" y="151.0" font-family="Segoe UI, Roboto, Helvetica Neue, Arial, sans-serif" font-size="11" font-weight="600" fill="#9CF1CB">Applied</text>
</g>
<g id="chip-MSE-Business-Loan">
<rect x="160.9" y="136.0" width="114.3" height="22.0" rx="11.0" fill="#243234"/>
<text id="MSE-Business-Loan" x="170.9" y="151.0" font-family="Segoe UI, Roboto, Helvetica Neue, Arial, sans-serif" font-size="11" font-weight="600" fill="#9CE8F1">MSE Business Loan</text>
</g>
</g>
<g id="visit-bar">
<rect x="16.0" y="186.0" width="328.0" height="44.0" rx="14" fill="#21232A"/>
<g id="icon-history" transform="translate(28.0 198.0) scale(0.7500)">
<path d="M3 12a9 9 0 1 0 9-9 9.75 9.75 0 0 0-6.74 2.74L3 8" fill="none" stroke="#B0B1C7" stroke-width="2.67" stroke-linecap="round" stroke-linejoin="round"/>
<path d="M3 3v5h5" fill="none" stroke="#B0B1C7" stroke-width="2.67" stroke-linecap="round" stroke-linejoin="round"/>
<path d="M12 7v5l4 2" fill="none" stroke="#B0B1C7" stroke-width="2.67" stroke-linecap="round" stroke-linejoin="round"/>
</g>
<text id="Last-visit-today-11-14-11-52" x="54.0" y="206.0" font-family="Segoe UI, Roboto, Helvetica Neue, Arial, sans-serif" font-size="12.5" font-weight="700" fill="#B0B1C7">Last visit today 11:14–11:52</text>
<text id="Outcome-application-submitt" x="54.0" y="222.0" font-family="Segoe UI, Roboto, Helvetica Neue, Arial, sans-serif" font-size="11" font-weight="400" fill="#9396AA">Outcome: application submitted</text>
</g>
<g id="tabs">
<rect x="18.0" y="244.0" width="78.0" height="34.0" rx="12" fill="#1D1E27" filter="url(#soft)"/>
<text id="Overview" x="28.2" y="266.0" font-family="Segoe UI, Roboto, Helvetica Neue, Arial, sans-serif" font-size="13" font-weight="700" fill="#A09FDD">Overview</text>
<text id="KYC" x="127.7" y="266.0" font-family="Segoe UI, Roboto, Helvetica Neue, Arial, sans-serif" font-size="13" font-weight="400" fill="#B0B1C7">KYC</text>
<text id="Loan" x="207.1" y="266.0" font-family="Segoe UI, Roboto, Helvetica Neue, Arial, sans-serif" font-size="13" font-weight="400" fill="#B0B1C7">Loan</text>
<text id="Visits" x="288.1" y="266.0" font-family="Segoe UI, Roboto, Helvetica Neue, Arial, sans-serif" font-size="13" font-weight="400" fill="#B0B1C7">Visits</text>
</g>
<rect x="16.0" y="292.0" width="328.0" height="72.0" rx="16" fill="#1D1E27" filter="url(#soft)"/>
<text id="WHERE-SHE-IS-IN-THE-JOURNEY" x="30.0" y="314.0" font-family="Segoe UI, Roboto, Helvetica Neue, Arial, sans-serif" font-size="10.5" font-weight="700" fill="#9396AA" letter-spacing="0.8">WHERE SHE IS IN THE JOURNEY</text>
<line x1="44.0" y1="334.0" x2="316.0" y2="334.0" stroke="#282932" stroke-width="2"/>
<line x1="44.0" y1="334.0" x2="316.0" y2="334.0" stroke="#91EFC5" stroke-width="2"/>
<circle cx="44.0" cy="334.0" r="6.5" fill="#15925A"/>
<text id="Visited" x="29.1" y="354.0" font-family="Segoe UI, Roboto, Helvetica Neue, Arial, sans-serif" font-size="10" font-weight="400" fill="#B0B1C7">Visited</text>
<circle cx="98.4" cy="334.0" r="6.5" fill="#15925A"/>
<text id="Interested" x="76.2" y="354.0" font-family="Segoe UI, Roboto, Helvetica Neue, Arial, sans-serif" font-size="10" font-weight="400" fill="#B0B1C7">Interested</text>
<circle cx="152.8" cy="334.0" r="6.5" fill="#15925A"/>
<text id="KYC-2" x="144.1" y="354.0" font-family="Segoe UI, Roboto, Helvetica Neue, Arial, sans-serif" font-size="10" font-weight="400" fill="#B0B1C7">KYC</text>
<circle cx="207.2" cy="334.0" r="6.5" fill="#15925A"/>
<text id="Validated" x="186.7" y="354.0" font-family="Segoe UI, Roboto, Helvetica Neue, Arial, sans-serif" font-size="10" font-weight="400" fill="#B0B1C7">Validated</text>
<circle cx="261.6" cy="334.0" r="6.5" fill="#15925A"/>
<text id="Negotiate" x="239.6" y="354.0" font-family="Segoe UI, Roboto, Helvetica Neue, Arial, sans-serif" font-size="10" font-weight="400" fill="#B0B1C7">Negotiate</text>
<circle cx="316.0" cy="334.0" r="6.5" fill="#15925A"/>
<text id="Applied-2" x="297.6" y="354.0" font-family="Segoe UI, Roboto, Helvetica Neue, Arial, sans-serif" font-size="10" font-weight="700" fill="#A09FDD">Applied</text>
<g id="row-Next-supervisor-decision">
<rect x="16.0" y="376.0" width="328.0" height="58.0" rx="14" fill="#362C19"/>
<circle cx="44.0" cy="405.0" r="16.0" fill="#3A3326"/>
<g id="icon-clock" transform="translate(35.0 396.0) scale(0.7500)">
<path d="M12 2a10 10 0 1 0 0 20 10 10 0 1 0 0-20z" fill="none" stroke="#F0D198" stroke-width="2.93" stroke-linecap="round" stroke-linejoin="round"/>
<path d="M12 6v6l4 2" fill="none" stroke="#F0D198" stroke-width="2.93" stroke-linecap="round" stroke-linejoin="round"/>
</g>
<text id="Next-supervisor-decision" x="70.0" y="402.0" font-family="Segoe UI, Roboto, Helvetica Neue, Arial, sans-serif" font-size="13.5" font-weight="600" fill="#CBCCE7">Next: supervisor decision</text>
<text id="Waiting-for-Moses-Okello-y" x="70.0" y="420.0" font-family="Segoe UI, Roboto, Helvetica Neue, Arial, sans-serif" font-size="11.5" font-weight="400" fill="#9396AA">Waiting for Moses Okello · you'll be notified</text>
</g>
<g id="row-LU-APP-2609-04817">
<rect x="16.0" y="442.0" width="328.0" height="58.0" rx="14" fill="#1D1E27" filter="url(#soft)"/>
<circle cx="44.0" cy="471.0" r="16.0" fill="#273730"/>
<g id="icon-briefcase" transform="translate(35.0 462.0) scale(0.7500)">
<path d="M4 7h16a2 2 0 0 1 2 2v10a2 2 0 0 1-2 2H4a2 2 0 0 1-2-2V9a2 2 0 0 1 2-2z" fill="none" stroke="#91EFC5" stroke-width="2.93" stroke-linecap="round" stroke-linejoin="round"/>
<path d="M16 21V5a2 2 0 0 0-2-2h-4a2 2 0 0 0-2 2v16" fill="none" stroke="#91EFC5" stroke-width="2.93" stroke-linecap="round" stroke-linejoin="round"/>
</g>
<text id="LU-APP-2609-04817" x="70.0" y="468.0" font-family="Segoe UI, Roboto, Helvetica Neue, Arial, sans-serif" font-size="13.5" font-weight="600" fill="#CBCCE7">LU-APP-2609-04817</text>
<text id="UGX-6-000-000-18-months" x="70.0" y="486.0" font-family="Segoe UI, Roboto, Helvetica Neue, Arial, sans-serif" font-size="11.5" font-weight="400" fill="#9396AA">UGX 6,000,000 · 18 months</text>
<g id="icon-chevright" transform="translate(316.0 461.0) scale(0.8333)">
<path d="M9 18l6-6-6-6" fill="none" stroke="#AAACC0" stroke-width="2.16" stroke-linecap="round" stroke-linejoin="round"/>
</g>
</g>
<g id="row-Plan-Kiwatule-follow-ups">
<rect x="16.0" y="508.0" width="328.0" height="58.0" rx="14" fill="#1D1E27" filter="url(#soft)"/>
<circle cx="44.0" cy="537.0" r="16.0" fill="#2A2A34"/>
<g id="icon-route" transform="translate(35.0 528.0) scale(0.7500)">
<path d="M6 16a3 3 0 1 0 0 6 3 3 0 1 0 0-6z" fill="none" stroke="#A09FDD" stroke-width="2.93" stroke-linecap="round" stroke-linejoin="round"/>
<path d="M9 19h8.5a3.5 3.5 0 0 0 0-7h-11a3.5 3.5 0 0 1 0-7H15" fill="none" stroke="#A09FDD" stroke-width="2.93" stroke-linecap="round" stroke-linejoin="round"/>
<path d="M18 2a3 3 0 1 0 0 6 3 3 0 1 0 0-6z" fill="none" stroke="#A09FDD" stroke-width="2.93" stroke-linecap="round" stroke-linejoin="round"/>
</g>
<text id="Plan-Kiwatule-follow-ups" x="70.0" y="534.0" font-family="Segoe UI, Roboto, Helvetica Neue, Arial, sans-serif" font-size="13.5" font-weight="600" fill="#CBCCE7">Plan: Kiwatule follow-ups</text>
<text id="8-of-12-visited-next-Ivan" x="70.0" y="552.0" font-family="Segoe UI, Roboto, Helvetica Neue, Arial, sans-serif" font-size="11.5" font-weight="400" fill="#9396AA">8 of 12 visited · next: Ivan Kasozi 12:30</text>
<g id="icon-chevright-2" transform="translate(316.0 527.0) scale(0.8333)">
<path d="M9 18l6-6-6-6" fill="none" stroke="#AAACC0" stroke-width="2.16" stroke-linecap="round" stroke-linejoin="round"/>
</g>
</g>
<g id="footer">
<rect x="0.0" y="716.0" width="360.0" height="84.0" fill="#1D1E27"/>
<line x1="0.0" y1="716.0" x2="360.0" y2="716.0" stroke="#282932" stroke-width="1"/>
<g id="button-Check-in">
<rect x="16.0" y="730.0" width="328.0" height="48.0" rx="12" fill="#4F4CC9"/>
<g id="icon-pin" transform="translate(140.1 745.0) scale(0.7500)">
<path d="M20 10c0 6-8 12-8 12s-8-6-8-12a8 8 0 0 1 16 0z" fill="none" stroke="#FFFFFF" stroke-width="2.67" stroke-linecap="round" stroke-linejoin="round"/>
<path d="M12 7a3 3 0 1 0 0 6 3 3 0 1 0 0-6z" fill="none" stroke="#FFFFFF" stroke-width="2.67" stroke-linecap="round" stroke-linejoin="round"/>
</g>
<text id="Check-in" x="166.1" y="759.0" font-family="Segoe UI, Roboto, Helvetica Neue, Arial, sans-serif" font-size="14" font-weight="600" fill="#FFFFFF">Check in</text>
</g>
</g>
<rect id="gesture-bar" x="126.0" y="792.0" width="108.0" height="4.0" rx="2" fill="#1B1C3A" fill-opacity="0.45"/>
</svg>
