<svg xmlns="http://www.w3.org/2000/svg" width="360" height="800" viewBox="0 0 360 800">
<title>M9d Florence: Visits tab (visit in progress)</title>
<defs><filter id="soft" x="-20%" y="-20%" width="140%" height="170%"><feDropShadow dx="0" dy="6" stdDeviation="9" flood-color="#1B1C3A" flood-opacity="0.07"/></filter></defs>
<rect id="screen-background" x="0.0" y="0.0" width="360.0" height="800.0" fill="#121319"/>
<g id="status-bar">
<text id="11-15" x="16.0" y="18.0" font-family="Segoe UI, Roboto, Helvetica Neue, Arial, sans-serif" font-size="12.5" font-weight="600" fill="#CBCCE7">11:15</text>
<rect id="battery" x="322.0" y="8.0" width="20.0" height="10.0" rx="2" fill="none" stroke="#CBCCE7" stroke-width="1.2"/>
<rect x="324.0" y="10.0" width="13.0" height="6.0" rx="1" fill="#1B1C3A"/>
<rect x="342.5" y="11.0" width="2.0" height="4.0" rx="1" fill="#1B1C3A"/>
<rect id="signal-bar" x="292.0" y="14.0" width="3.0" height="3.0" rx="0.8" fill="#1B1C3A" fill-opacity="1"/>
<rect id="signal-bar-2" x="297.0" y="11.8" width="3.0" height="5.2" rx="0.8" fill="#1B1C3A" fill-opacity="1"/>
<rect id="signal-bar-3" x="302.0" y="9.6" width="3.0" height="7.4" rx="0.8" fill="#1B1C3A" fill-opacity="1"/>
<rect id="signal-bar-4" x="307.0" y="7.4" width="3.0" height="9.6" rx="0.8" fill="#1B1C3A" fill-opacity="0.3"/>
<text id="network" x="270.5" y="18.0" font-family="Segoe UI, Roboto, Helvetica Neue, Arial, sans-serif" font-size="10.5" font-weight="700" fill="#CBCCE7">4G</text>
</g>
<g id="app-bar">
<rect id="app-bar-bg" x="0.0" y="24.0" width="360.0" height="56.0" fill="#1D1E27"/>
<line x1="0.0" y1="80.0" x2="360.0" y2="80.0" stroke="#282932" stroke-width="1"/>
<g id="icon-arrowleft" transform="translate(16.0 40.0) scale(1.0000)">
<path d="M19 12H5" fill="none" stroke="#CBCCE7" stroke-width="2.00" stroke-linecap="round" stroke-linejoin="round"/>
<path d="M12 19l-7-7 7-7" fill="none" stroke="#CBCCE7" stroke-width="2.00" stroke-linecap="round" stroke-linejoin="round"/>
</g>
<text id="Florence-Nambi" x="56.0" y="48.0" font-family="Segoe UI, Roboto, Helvetica Neue, Arial, sans-serif" font-size="16.5" font-weight="600" fill="#CBCCE7">Florence Nambi</text>
<text id="Client-CL-0021457-Kiwatule" x="56.0" y="67.0" font-family="Segoe UI, Roboto, Helvetica Neue, Arial, sans-serif" font-size="12" font-weight="400" fill="#9396AA">Client CL-0021457 · Kiwatule market route</text>
<g id="icon-more" transform="translate(320.0 40.0) scale(1.0000)">
<path d="M12 12h.01" fill="none" stroke="#CBCCE7" stroke-width="2.00" stroke-linecap="round" stroke-linejoin="round"/>
<path d="M19 12h.01" fill="none" stroke="#CBCCE7" stroke-width="2.00" stroke-linecap="round" stroke-linejoin="round"/>
<path d="M5 12h.01" fill="none" stroke="#CBCCE7" stroke-width="2.00" stroke-linecap="round" stroke-linejoin="round"/>
</g>
</g>
<g id="client-header">
<rect x="16.0" y="92.0" width="328.0" height="84.0" rx="18" fill="#1D1E27" filter="url(#soft)"/>
<g id="avatar-FN">
<circle cx="50.0" cy="134.0" r="22.0" fill="#2A3A33"/>
<text id="FN" x="38.9" y="141.9" font-family="Segoe UI, Roboto, Helvetica Neue, Arial, sans-serif" font-size="17.6" font-weight="600" fill="#9AF0CA">FN</text>
</g>
<text id="Nambi-Tailoring-F" x="82.0" y="124.0" font-family="Segoe UI, Roboto, Helvetica Neue, Arial, sans-serif" font-size="14" font-weight="700" fill="#CBCCE7">Nambi Tailoring &amp; F…</text>
<g id="chip-Interested">
<rect x="82.0" y="136.0" width="84.3" height="22.0" rx="11.0" fill="#1A2433"/>
<circle cx="96.0" cy="147.0" r="4.0" fill="#2F6FDB"/>
<text id="Interested" x="106.0" y="151.0" font-family="Segoe UI, Roboto, Helvetica Neue, Arial, sans-serif" font-size="11" font-weight="600" fill="#769FE2">Interested</text>
</g>
<g id="chip-MSE-Business-Loan">
<rect x="172.3" y="136.0" width="114.3" height="22.0" rx="11.0" fill="#243234"/>
<text id="MSE-Business-Loan" x="182.3" y="151.0" font-family="Segoe UI, Roboto, Helvetica Neue, Arial, sans-serif" font-size="11" font-weight="600" fill="#9CE8F1">MSE Business Loan</text>
</g>
<circle cx="318.0" cy="122.0" r="17.0" fill="#21212A"/>
<g id="icon-phone" transform="translate(309.0 113.0) scale(0.7500)">
<path d="M7 2h10a2 2 0 0 1 2 2v16a2 2 0 0 1-2 2H7a2 2 0 0 1-2-2V4a2 2 0 0 1 2-2z" fill="none" stroke="#A09FDD" stroke-width="2.67" stroke-linecap="round" stroke-linejoin="round"/>
<path d="M12 18h.01" fill="none" stroke="#A09FDD" stroke-width="2.67" stroke-linecap="round" stroke-linejoin="round"/>
</g>
<circle cx="274.0" cy="122.0" r="17.0" fill="#21212A"/>
<g id="icon-navigation" transform="translate(265.0 113.0) scale(0.7500)">
<path d="M3 11l19-9-9 19-2-8z" fill="none" stroke="#A09FDD" stroke-width="2.67" stroke-linecap="round" stroke-linejoin="round"/>
</g>
</g>
<g id="visit-bar">
<rect x="16.0" y="186.0" width="328.0" height="44.0" rx="14" fill="#222F29"/>
<circle cx="34.0" cy="208.0" r="5.0" fill="#15925A"/>
<text id="Visit-in-progress" x="48.0" y="206.0" font-family="Segoe UI, Roboto, Helvetica Neue, Arial, sans-serif" font-size="13" font-weight="700" fill="#A9F3D2">Visit in progress</text>
<text id="Checked-in-11-14-GPS-9-m" x="48.0" y="222.0" font-family="Segoe UI, Roboto, Helvetica Neue, Arial, sans-serif" font-size="11" font-weight="400" fill="#A9F3D2">Checked in 11:14 · GPS ✓ 9 m</text>
<rect x="240.0" y="194.0" width="92.0" height="28.0" rx="10" fill="#1D1E27" stroke="#71BD9A" stroke-width="1"/>
<g id="icon-logout" transform="translate(250.0 200.0) scale(0.6250)">
<path d="M9 21H5a2 2 0 0 1-2-2V5a2 2 0 0 1 2-2h4" fill="none" stroke="#A9F3D2" stroke-width="3.52" stroke-linecap="round" stroke-linejoin="round"/>
<path d="M16 17l5-5-5-5" fill="none" stroke="#A9F3D2" stroke-width="3.52" stroke-linecap="round" stroke-linejoin="round"/>
<path d="M21 12H9" fill="none" stroke="#A9F3D2" stroke-width="3.52" stroke-linecap="round" stroke-linejoin="round"/>
</g>
<text id="Check-out" x="270.0" y="212.5" font-family="Segoe UI, Roboto, Helvetica Neue, Arial, sans-serif" font-size="12" font-weight="700" fill="#A9F3D2">Check out</text>
</g>
<g id="tabs">
<text id="Overview" x="30.5" y="266.0" font-family="Segoe UI, Roboto, Helvetica Neue, Arial, sans-serif" font-size="13" font-weight="400" fill="#B0B1C7">Overview</text>
<text id="KYC" x="127.7" y="266.0" font-family="Segoe UI, Roboto, Helvetica Neue, Arial, sans-serif" font-size="13" font-weight="400" fill="#B0B1C7">KYC</text>
<text id="Loan" x="207.1" y="266.0" font-family="Segoe UI, Roboto, Helvetica Neue, Arial, sans-serif" font-size="13" font-weight="400" fill="#B0B1C7">Loan</text>
<rect x="264.0" y="244.0" width="78.0" height="34.0" rx="12" fill="#1D1E27" filter="url(#soft)"/>
<text id="Visits" x="286.7" y="266.0" font-family="Segoe UI, Roboto, Helvetica Neue, Arial, sans-serif" font-size="13" font-weight="700" fill="#A09FDD">Visits</text>
</g>
<g id="visit-Today-11-14">
<rect x="16.0" y="292.0" width="328.0" height="72.0" rx="14" fill="#1D1E27" filter="url(#soft)"/>
<rect x="16.0" y="306.0" width="4.0" height="44.0" rx="2" fill="#15925A"/>
<text id="Today-11-14" x="34.0" y="316.0" font-family="Segoe UI, Roboto, Helvetica Neue, Arial, sans-serif" font-size="13.5" font-weight="700" fill="#CBCCE7">Today 11:14</text>
<text id="Sarah-Namuli-take-KYC" x="34.0" y="335.0" font-family="Segoe UI, Roboto, Helvetica Neue, Arial, sans-serif" font-size="12" font-weight="400" fill="#9396AA">Sarah Namuli · take KYC</text>
<text id="In-progress" x="34.0" y="353.0" font-family="Segoe UI, Roboto, Helvetica Neue, Arial, sans-serif" font-size="12" font-weight="600" fill="#9EF1CC">In progress</text>
</g>
<g id="visit-14-Sep-09-40">
<rect x="16.0" y="372.0" width="328.0" height="72.0" rx="14" fill="#1D1E27" filter="url(#soft)"/>
<rect x="16.0" y="386.0" width="4.0" height="44.0" rx="2" fill="#2F6FDB"/>
<text id="14-Sep-09-40" x="34.0" y="396.0" font-family="Segoe UI, Roboto, Helvetica Neue, Arial, sans-serif" font-size="13.5" font-weight="700" fill="#CBCCE7">14 Sep 09:40</text>
<text id="Sarah-Namuli-follow-up" x="34.0" y="415.0" font-family="Segoe UI, Roboto, Helvetica Neue, Arial, sans-serif" font-size="12" font-weight="400" fill="#9396AA">Sarah Namuli · follow-up</text>
<text id="Needs-time-ID-sales-book" x="34.0" y="433.0" font-family="Segoe UI, Roboto, Helvetica Neue, Arial, sans-serif" font-size="12" font-weight="600" fill="#7AA1E2">Needs time: ID, sales book</text>
</g>
<g id="visit-29-Jul-10-05">
<rect x="16.0" y="452.0" width="328.0" height="72.0" rx="14" fill="#1D1E27" filter="url(#soft)"/>
<rect x="16.0" y="466.0" width="4.0" height="44.0" rx="2" fill="#2F6FDB"/>
<text id="29-Jul-10-05" x="34.0" y="476.0" font-family="Segoe UI, Roboto, Helvetica Neue, Arial, sans-serif" font-size="13.5" font-weight="700" fill="#CBCCE7">29 Jul 10:05</text>
<text id="John-Mugisha-first-visit" x="34.0" y="495.0" font-family="Segoe UI, Roboto, Helvetica Neue, Arial, sans-serif" font-size="12" font-weight="400" fill="#9396AA">John Mugisha · first visit</text>
<text id="Interested-2" x="34.0" y="513.0" font-family="Segoe UI, Roboto, Helvetica Neue, Arial, sans-serif" font-size="12" font-weight="600" fill="#7AA1E2">Interested</text>
</g>
<g id="footer">
<rect x="0.0" y="716.0" width="360.0" height="84.0" fill="#1D1E27"/>
<line x1="0.0" y1="716.0" x2="360.0" y2="716.0" stroke="#282932" stroke-width="1"/>
<g id="button-Check-out">
<rect x="16.0" y="730.0" width="328.0" height="48.0" rx="12" fill="#4F4CC9"/>
<g id="icon-logout-2" transform="translate(135.2 745.0) scale(0.7500)">
<path d="M9 21H5a2 2 0 0 1-2-2V5a2 2 0 0 1 2-2h4" fill="none" stroke="#FFFFFF" stroke-width="2.67" stroke-linecap="round" stroke-linejoin="round"/>
<path d="M16 17l5-5-5-5" fill="none" stroke="#FFFFFF" stroke-width="2.67" stroke-linecap="round" stroke-linejoin="round"/>
<path d="M21 12H9" fill="none" stroke="#FFFFFF" stroke-width="2.67" stroke-linecap="round" stroke-linejoin="round"/>
</g>
<text id="Check-out-2" x="161.2" y="759.0" font-family="Segoe UI, Roboto, Helvetica Neue, Arial, sans-serif" font-size="14" font-weight="600" fill="#FFFFFF">Check out</text>
</g>
</g>
<rect id="gesture-bar" x="126.0" y="792.0" width="108.0" height="4.0" rx="2" fill="#1B1C3A" fill-opacity="0.45"/>
</svg>
