<svg xmlns="http://www.w3.org/2000/svg" width="1920" height="1080" viewBox="0 0 1920 1080">
<title>06 Client record (Florence Nambi)</title>
<defs><filter id="soft" x="-20%" y="-20%" width="140%" height="170%"><feDropShadow dx="0" dy="6" stdDeviation="9" flood-color="#1B1C3A" flood-opacity="0.07"/></filter></defs>
<rect id="page-background" x="0.0" y="0.0" width="1920.0" height="1080.0" fill="#F6F7F9"/>
<g id="sidebar">
<rect id="sidebar-bg" x="0.0" y="0.0" width="264.0" height="1080.0" fill="#FFFFFE"/>
<line x1="264.0" y1="0.0" x2="264.0" y2="1080.0" stroke="#E4E5EF" stroke-width="1"/>
<g id="letshego-wordmark">
<g id="letshego-triangle">
<path d="M40.6 28.1 L26.8 51.8 L42.1 44.2 Z" fill="#FBD405"/>
<path d="M40.6 28.1 L42.1 44.2 L52.8 51.8 Z" fill="#E9B800"/>
<path d="M26.8 51.8 L42.1 44.2 L52.8 51.8 Z" fill="#FFE457"/>
</g>
<text id="Letshego" x="60.0" y="50.0" font-family="Segoe UI, Roboto, Helvetica Neue, Arial, sans-serif" font-size="23" font-weight="700" fill="#1B1C3A" font-style="italic">Letshego</text>
</g>
<text id="product-sub" x="26.0" y="72.0" font-family="Segoe UI, Roboto, Helvetica Neue, Arial, sans-serif" font-size="12" font-weight="400" fill="#7D8099">Field Sales · Uganda</text>
<text id="nav-group-SALES" x="28.0" y="110.0" font-family="Segoe UI, Roboto, Helvetica Neue, Arial, sans-serif" font-size="10.5" font-weight="600" fill="#AAACC0" letter-spacing="1.2">SALES</text>
<g id="nav-Overview">
<g id="icon-grid" transform="translate(30.0 134.0) scale(0.8333)">
<path d="M4 3h6a1 1 0 0 1 1 1v8a1 1 0 0 1-1 1H4a1 1 0 0 1-1-1V4a1 1 0 0 1 1-1z" fill="none" stroke="#8A8DA6" stroke-width="2.28" stroke-linecap="round" stroke-linejoin="round"/>
<path d="M14 3h6a1 1 0 0 1 1 1v4a1 1 0 0 1-1 1h-6a1 1 0 0 1-1-1V4a1 1 0 0 1 1-1z" fill="none" stroke="#8A8DA6" stroke-width="2.28" stroke-linecap="round" stroke-linejoin="round"/>
<path d="M14 12h6a1 1 0 0 1 1 1v7a1 1 0 0 1-1 1h-6a1 1 0 0 1-1-1v-7a1 1 0 0 1 1-1z" fill="none" stroke="#8A8DA6" stroke-width="2.28" stroke-linecap="round" stroke-linejoin="round"/>
<path d="M4 16h6a1 1 0 0 1 1 1v3a1 1 0 0 1-1 1H4a1 1 0 0 1-1-1v-3a1 1 0 0 1 1-1z" fill="none" stroke="#8A8DA6" stroke-width="2.28" stroke-linecap="round" stroke-linejoin="round"/>
</g>
<text id="label" x="62.0" y="149.0" font-family="Segoe UI, Roboto, Helvetica Neue, Arial, sans-serif" font-size="14" font-weight="400" fill="#4B4D6B">Overview</text>
</g>
<g id="nav-Agents">
<g id="icon-users" transform="translate(30.0 176.0) scale(0.8333)">
<path d="M16 21v-2a4 4 0 0 0-4-4H6a4 4 0 0 0-4 4v2" fill="none" stroke="#8A8DA6" stroke-width="2.28" stroke-linecap="round" stroke-linejoin="round"/>
<path d="M9 3a4 4 0 1 0 0 8 4 4 0 1 0 0-8z" fill="none" stroke="#8A8DA6" stroke-width="2.28" stroke-linecap="round" stroke-linejoin="round"/>
<path d="M22 21v-2a4 4 0 0 0-3-3.87" fill="none" stroke="#8A8DA6" stroke-width="2.28" stroke-linecap="round" stroke-linejoin="round"/>
<path d="M16 3.13a4 4 0 0 1 0 7.75" fill="none" stroke="#8A8DA6" stroke-width="2.28" stroke-linecap="round" stroke-linejoin="round"/>
</g>
<text id="label-2" x="62.0" y="191.0" font-family="Segoe UI, Roboto, Helvetica Neue, Arial, sans-serif" font-size="14" font-weight="400" fill="#4B4D6B">Agents</text>
<rect id="badge" x="213.7" y="177.0" width="20.3" height="18.0" rx="9" fill="#D14343"/>
<text id="badge-n" x="220.7" y="190.0" font-family="Segoe UI, Roboto, Helvetica Neue, Arial, sans-serif" font-size="11" font-weight="700" fill="#FFFFFF">6</text>
</g>
<g id="nav-Field-map">
<g id="icon-map" transform="translate(30.0 218.0) scale(0.8333)">
<path d="M14.1 5.55a2 2 0 0 0 1.8 0l3.65-1.83A1 1 0 0 1 21 4.62v12.76a1 1 0 0 1-.55.9l-4.55 2.27a2 2 0 0 1-1.8 0l-4.2-2.1a2 2 0 0 0-1.8 0l-3.65 1.83A1 1 0 0 1 3 19.38V6.62a1 1 0 0 1 .55-.9l4.55-2.27a2 2 0 0 1 1.8 0z" fill="none" stroke="#8A8DA6" stroke-width="2.28" stroke-linecap="round" stroke-linejoin="round"/>
<path d="M15 5.76v15" fill="none" stroke="#8A8DA6" stroke-width="2.28" stroke-linecap="round" stroke-linejoin="round"/>
<path d="M9 3.24v15" fill="none" stroke="#8A8DA6" stroke-width="2.28" stroke-linecap="round" stroke-linejoin="round"/>
</g>
<text id="label-3" x="62.0" y="233.0" font-family="Segoe UI, Roboto, Helvetica Neue, Arial, sans-serif" font-size="14" font-weight="400" fill="#4B4D6B">Field map</text>
</g>
<g id="nav-Client-pipeline">
<rect id="active-bg" x="14.0" y="250.0" width="236.0" height="40.0" rx="10" fill="#EEEEF5"/>
<g id="icon-workflow" transform="translate(30.0 260.0) scale(0.8333)">
<path d="M4 3h4a1 1 0 0 1 1 1v4a1 1 0 0 1-1 1H4a1 1 0 0 1-1-1V4a1 1 0 0 1 1-1z" fill="none" stroke="#2F2E80" stroke-width="2.28" stroke-linecap="round" stroke-linejoin="round"/>
<path d="M16 15h4a1 1 0 0 1 1 1v4a1 1 0 0 1-1 1h-4a1 1 0 0 1-1-1v-4a1 1 0 0 1 1-1z" fill="none" stroke="#2F2E80" stroke-width="2.28" stroke-linecap="round" stroke-linejoin="round"/>
<path d="M7 9v4a2 2 0 0 0 2 2h6" fill="none" stroke="#2F2E80" stroke-width="2.28" stroke-linecap="round" stroke-linejoin="round"/>
</g>
<text id="label-4" x="62.0" y="275.0" font-family="Segoe UI, Roboto, Helvetica Neue, Arial, sans-serif" font-size="14" font-weight="600" fill="#2F2E80">Client pipeline</text>
</g>
<text id="nav-group-LOANS" x="28.0" y="304.0" font-family="Segoe UI, Roboto, Helvetica Neue, Arial, sans-serif" font-size="10.5" font-weight="600" fill="#AAACC0" letter-spacing="1.2">LOANS</text>
<g id="nav-Approvals">
<g id="icon-listcheck" transform="translate(30.0 328.0) scale(0.8333)">
<path d="M3 17l2 2 4-4" fill="none" stroke="#8A8DA6" stroke-width="2.28" stroke-linecap="round" stroke-linejoin="round"/>
<path d="M3 7l2 2 4-4" fill="none" stroke="#8A8DA6" stroke-width="2.28" stroke-linecap="round" stroke-linejoin="round"/>
<path d="M13 6h8" fill="none" stroke="#8A8DA6" stroke-width="2.28" stroke-linecap="round" stroke-linejoin="round"/>
<path d="M13 12h8" fill="none" stroke="#8A8DA6" stroke-width="2.28" stroke-linecap="round" stroke-linejoin="round"/>
<path d="M13 18h8" fill="none" stroke="#8A8DA6" stroke-width="2.28" stroke-linecap="round" stroke-linejoin="round"/>
</g>
<text id="label-5" x="62.0" y="343.0" font-family="Segoe UI, Roboto, Helvetica Neue, Arial, sans-serif" font-size="14" font-weight="400" fill="#4B4D6B">Approvals</text>
<rect id="badge-2" x="207.3" y="329.0" width="26.7" height="18.0" rx="9" fill="#FBD405"/>
<text id="badge-n-2" x="214.3" y="342.0" font-family="Segoe UI, Roboto, Helvetica Neue, Arial, sans-serif" font-size="11" font-weight="700" fill="#1F1E57">14</text>
</g>
<g id="nav-Why-why-not">
<g id="icon-message" transform="translate(30.0 370.0) scale(0.8333)">
<path d="M21 15a2 2 0 0 1-2 2H7l-4 4V5a2 2 0 0 1 2-2h14a2 2 0 0 1 2 2z" fill="none" stroke="#8A8DA6" stroke-width="2.28" stroke-linecap="round" stroke-linejoin="round"/>
</g>
<text id="label-6" x="62.0" y="385.0" font-family="Segoe UI, Roboto, Helvetica Neue, Arial, sans-serif" font-size="14" font-weight="400" fill="#4B4D6B">Why &amp; why not</text>
</g>
<text id="nav-group-PLANNING" x="28.0" y="414.0" font-family="Segoe UI, Roboto, Helvetica Neue, Arial, sans-serif" font-size="10.5" font-weight="600" fill="#AAACC0" letter-spacing="1.2">PLANNING</text>
<g id="nav-Journey-plans">
<g id="icon-route" transform="translate(30.0 438.0) scale(0.8333)">
<path d="M6 16a3 3 0 1 0 0 6 3 3 0 1 0 0-6z" fill="none" stroke="#8A8DA6" stroke-width="2.28" stroke-linecap="round" stroke-linejoin="round"/>
<path d="M9 19h8.5a3.5 3.5 0 0 0 0-7h-11a3.5 3.5 0 0 1 0-7H15" fill="none" stroke="#8A8DA6" stroke-width="2.28" stroke-linecap="round" stroke-linejoin="round"/>
<path d="M18 2a3 3 0 1 0 0 6 3 3 0 1 0 0-6z" fill="none" stroke="#8A8DA6" stroke-width="2.28" stroke-linecap="round" stroke-linejoin="round"/>
</g>
<text id="label-7" x="62.0" y="453.0" font-family="Segoe UI, Roboto, Helvetica Neue, Arial, sans-serif" font-size="14" font-weight="400" fill="#4B4D6B">Journey plans</text>
</g>
<text id="nav-group-ADMIN" x="28.0" y="482.0" font-family="Segoe UI, Roboto, Helvetica Neue, Arial, sans-serif" font-size="10.5" font-weight="600" fill="#AAACC0" letter-spacing="1.2">ADMIN</text>
<g id="nav-Locations">
<g id="icon-layers" transform="translate(30.0 506.0) scale(0.8333)">
<path d="M12.83 2.18a2 2 0 0 0-1.66 0L2.6 6.08a1 1 0 0 0 0 1.83l8.58 3.91a2 2 0 0 0 1.66 0l8.58-3.9a1 1 0 0 0 0-1.83z" fill="none" stroke="#8A8DA6" stroke-width="2.28" stroke-linecap="round" stroke-linejoin="round"/>
<path d="M22 17.65l-9.17 4.16a2 2 0 0 1-1.66 0L2 17.65" fill="none" stroke="#8A8DA6" stroke-width="2.28" stroke-linecap="round" stroke-linejoin="round"/>
<path d="M22 12.65l-9.17 4.16a2 2 0 0 1-1.66 0L2 12.65" fill="none" stroke="#8A8DA6" stroke-width="2.28" stroke-linecap="round" stroke-linejoin="round"/>
</g>
<text id="label-8" x="62.0" y="521.0" font-family="Segoe UI, Roboto, Helvetica Neue, Arial, sans-serif" font-size="14" font-weight="400" fill="#4B4D6B">Locations</text>
</g>
<g id="nav-Users">
<g id="icon-user" transform="translate(30.0 548.0) scale(0.8333)">
<path d="M12 3a5 5 0 1 0 0 10 5 5 0 1 0 0-10z" fill="none" stroke="#8A8DA6" stroke-width="2.28" stroke-linecap="round" stroke-linejoin="round"/>
<path d="M20 21a8 8 0 0 0-16 0" fill="none" stroke="#8A8DA6" stroke-width="2.28" stroke-linecap="round" stroke-linejoin="round"/>
</g>
<text id="label-9" x="62.0" y="563.0" font-family="Segoe UI, Roboto, Helvetica Neue, Arial, sans-serif" font-size="14" font-weight="400" fill="#4B4D6B">Users</text>
</g>
<g id="nav-Roles-access">
<g id="icon-shield" transform="translate(30.0 590.0) scale(0.8333)">
<path d="M12 22s8-4 8-10V5l-8-3-8 3v7c0 6 8 10 8 10z" fill="none" stroke="#8A8DA6" stroke-width="2.28" stroke-linecap="round" stroke-linejoin="round"/>
<path d="M9 12l2 2 4-4" fill="none" stroke="#8A8DA6" stroke-width="2.28" stroke-linecap="round" stroke-linejoin="round"/>
</g>
<text id="label-10" x="62.0" y="605.0" font-family="Segoe UI, Roboto, Helvetica Neue, Arial, sans-serif" font-size="14" font-weight="400" fill="#4B4D6B">Roles &amp; access</text>
</g>
<g id="nav-Reports-audit">
<g id="icon-history" transform="translate(30.0 632.0) scale(0.8333)">
<path d="M3 12a9 9 0 1 0 9-9 9.75 9.75 0 0 0-6.74 2.74L3 8" fill="none" stroke="#8A8DA6" stroke-width="2.28" stroke-linecap="round" stroke-linejoin="round"/>
<path d="M3 3v5h5" fill="none" stroke="#8A8DA6" stroke-width="2.28" stroke-linecap="round" stroke-linejoin="round"/>
<path d="M12 7v5l4 2" fill="none" stroke="#8A8DA6" stroke-width="2.28" stroke-linecap="round" stroke-linejoin="round"/>
</g>
<text id="label-11" x="62.0" y="647.0" font-family="Segoe UI, Roboto, Helvetica Neue, Arial, sans-serif" font-size="14" font-weight="400" fill="#4B4D6B">Reports &amp; audit</text>
</g>
<g id="field-app-card">
<rect id="app-card" x="16.0" y="900.0" width="232.0" height="88.0" rx="14" fill="#FEF6CD"/>
<rect x="30.0" y="914.0" width="30.0" height="30.0" rx="9" fill="#FBD405"/>
<g id="icon-phone" transform="translate(36.0 920.0) scale(0.7500)">
<path d="M7 2h10a2 2 0 0 1 2 2v16a2 2 0 0 1-2 2H7a2 2 0 0 1-2-2V4a2 2 0 0 1 2-2z" fill="none" stroke="#1F1E57" stroke-width="2.67" stroke-linecap="round" stroke-linejoin="round"/>
<path d="M12 18h.01" fill="none" stroke="#1F1E57" stroke-width="2.67" stroke-linecap="round" stroke-linejoin="round"/>
</g>
<text id="Field-app" x="70.0" y="934.0" font-family="Segoe UI, Roboto, Helvetica Neue, Arial, sans-serif" font-size="13" font-weight="700" fill="#1B1C3A">Field app</text>
<text id="Sales-agents-relationship" x="30.0" y="960.0" font-family="Segoe UI, Roboto, Helvetica Neue, Arial, sans-serif" font-size="12" font-weight="400" fill="#4B4D6B">Sales agents · relationship officers</text>
<text id="Android-offline-GPS-op" x="30.0" y="978.0" font-family="Segoe UI, Roboto, Helvetica Neue, Arial, sans-serif" font-size="12" font-weight="600" fill="#8C6A00">Android · offline · GPS · open it →</text>
</g>
<g id="sidebar-user">
<line x1="16.0" y1="1004.0" x2="248.0" y2="1004.0" stroke="#E4E5EF" stroke-width="1"/>
<circle cx="44.0" cy="1042.0" r="18.0" fill="#FBD405"/>
<text id="MO" x="32.0" y="1048.0" font-family="Segoe UI, Roboto, Helvetica Neue, Arial, sans-serif" font-size="14" font-weight="700" fill="#1F1E57">MO</text>
<text id="Moses-Okello" x="72.0" y="1038.0" font-family="Segoe UI, Roboto, Helvetica Neue, Arial, sans-serif" font-size="14" font-weight="600" fill="#1B1C3A">Moses Okello</text>
<text id="Branch-Manager-Kampa" x="72.0" y="1057.0" font-family="Segoe UI, Roboto, Helvetica Neue, Arial, sans-serif" font-size="11.5" font-weight="400" fill="#7D8099">Branch Manager · Kampa…</text>
<rect id="sign-out-button" x="214.0" y="1022.0" width="38.0" height="38.0" rx="10" fill="#FDECEC"/>
<g id="icon-logout" transform="translate(223.0 1031.0) scale(0.8333)">
<path d="M9 21H5a2 2 0 0 1-2-2V5a2 2 0 0 1 2-2h4" fill="none" stroke="#D14343" stroke-width="2.40" stroke-linecap="round" stroke-linejoin="round"/>
<path d="M16 17l5-5-5-5" fill="none" stroke="#D14343" stroke-width="2.40" stroke-linecap="round" stroke-linejoin="round"/>
<path d="M21 12H9" fill="none" stroke="#D14343" stroke-width="2.40" stroke-linecap="round" stroke-linejoin="round"/>
</g>
</g>
</g>
<g id="top-bar">
<rect id="top-bar-bg" x="264.0" y="0.0" width="1656.0" height="68.0" fill="#FFFFFE"/>
<line x1="264.0" y1="68.0" x2="1920.0" y2="68.0" stroke="#E4E5EF" stroke-width="1"/>
<text id="crumb-Sales" x="296.0" y="40.0" font-family="Segoe UI, Roboto, Helvetica Neue, Arial, sans-serif" font-size="14" font-weight="400" fill="#7D8099">Sales</text>
<g id="icon-chevright" transform="translate(333.2 29.0) scale(0.6667)">
<path d="M9 18l6-6-6-6" fill="none" stroke="#AAACC0" stroke-width="2.70" stroke-linecap="round" stroke-linejoin="round"/>
</g>
<text id="crumb-Client-pipeline" x="355.2" y="40.0" font-family="Segoe UI, Roboto, Helvetica Neue, Arial, sans-serif" font-size="14" font-weight="400" fill="#7D8099">Client pipeline</text>
<g id="icon-chevright-2" transform="translate(449.7 29.0) scale(0.6667)">
<path d="M9 18l6-6-6-6" fill="none" stroke="#AAACC0" stroke-width="2.70" stroke-linecap="round" stroke-linejoin="round"/>
</g>
<text id="crumb-Florence-Nambi" x="471.7" y="40.0" font-family="Segoe UI, Roboto, Helvetica Neue, Arial, sans-serif" font-size="14" font-weight="600" fill="#1B1C3A">Florence Nambi</text>
<g id="avatar-MO">
<circle cx="1870.0" cy="34.0" r="18.0" fill="#DEDEEB"/>
<text id="MO-2" x="1857.8" y="40.5" font-family="Segoe UI, Roboto, Helvetica Neue, Arial, sans-serif" font-size="14.4" font-weight="600" fill="#2A2973">MO</text>
</g>
<line x1="1836.0" y1="20.0" x2="1836.0" y2="48.0" stroke="#E4E5EF" stroke-width="1"/>
<g id="notifications">
<g id="icon-bell" transform="translate(1792.0 23.0) scale(0.9167)">
<path d="M6 8a6 6 0 0 1 12 0c0 7 3 9 3 9H3s3-2 3-9" fill="none" stroke="#4B4D6B" stroke-width="1.96" stroke-linecap="round" stroke-linejoin="round"/>
<path d="M10.3 21a1.94 1.94 0 0 0 3.4 0" fill="none" stroke="#4B4D6B" stroke-width="1.96" stroke-linecap="round" stroke-linejoin="round"/>
</g>
<circle cx="1811.0" cy="25.0" r="7.0" fill="#D14343"/>
<text id="5" x="1808.1" y="29.0" font-family="Segoe UI, Roboto, Helvetica Neue, Arial, sans-serif" font-size="10" font-weight="700" fill="#FFFFFF">5</text>
</g>
<g id="theme-switch">
<circle cx="1755.0" cy="34.0" r="18.0" fill="#F4F5FA"/>
<g id="icon-moon" transform="translate(1745.0 24.0) scale(0.8333)">
<path d="M21 12.79A9 9 0 1 1 11.21 3 7 7 0 0 0 21 12.79z" fill="none" stroke="#4B4D6B" stroke-width="2.40" stroke-linecap="round" stroke-linejoin="round"/>
</g>
</g>
<g id="search">
<rect x="1454.0" y="16.0" width="266.0" height="36.0" rx="8" fill="#F4F5FA" stroke="#E4E5EF" stroke-width="1"/>
<g id="icon-search" transform="translate(1466.0 25.0) scale(0.7500)">
<path d="M11 3a8 8 0 1 0 0 16 8 8 0 1 0 0-16z" fill="none" stroke="#7D8099" stroke-width="2.40" stroke-linecap="round" stroke-linejoin="round"/>
<path d="M21 21l-4.3-4.3" fill="none" stroke="#7D8099" stroke-width="2.40" stroke-linecap="round" stroke-linejoin="round"/>
</g>
<text id="Search-prospects-leads-age" x="1494.0" y="39.0" font-family="Segoe UI, Roboto, Helvetica Neue, Arial, sans-serif" font-size="13" font-weight="400" fill="#AAACC0">Search prospects, leads, agents…</text>
</g>
<g id="segmented-control">
<rect x="1187.8" y="16.0" width="246.2" height="36.0" rx="8" fill="#F1F2F8" stroke="#E4E5EF" stroke-width="1"/>
<text id="Day" x="1205.8" y="38.7" font-family="Segoe UI, Roboto, Helvetica Neue, Arial, sans-serif" font-size="13" font-weight="600" fill="#4B4D6B">Day</text>
<text id="Week" x="1256.6" y="38.7" font-family="Segoe UI, Roboto, Helvetica Neue, Arial, sans-serif" font-size="13" font-weight="600" fill="#4B4D6B">Week</text>
<rect x="1303.4" y="20.0" width="73.7" height="28.0" rx="6" fill="#2F2E80"/>
<text id="Quarter" x="1317.4" y="38.7" font-family="Segoe UI, Roboto, Helvetica Neue, Arial, sans-serif" font-size="13" font-weight="600" fill="#FFFFFF">Quarter</text>
<text id="Year" x="1391.1" y="38.7" font-family="Segoe UI, Roboto, Helvetica Neue, Arial, sans-serif" font-size="13" font-weight="600" fill="#4B4D6B">Year</text>
</g>
<g id="date-range">
<rect x="987.6" y="16.0" width="188.2" height="36.0" rx="8" fill="#FFFFFE" stroke="#E4E5EF" stroke-width="1"/>
<g id="icon-calendar" transform="translate(999.6 25.0) scale(0.7500)">
<path d="M5 4h14a2 2 0 0 1 2 2v14a2 2 0 0 1-2 2H5a2 2 0 0 1-2-2V6a2 2 0 0 1 2-2z" fill="none" stroke="#2F2E80" stroke-width="2.40" stroke-linecap="round" stroke-linejoin="round"/>
<path d="M16 2v4" fill="none" stroke="#2F2E80" stroke-width="2.40" stroke-linecap="round" stroke-linejoin="round"/>
<path d="M8 2v4" fill="none" stroke="#2F2E80" stroke-width="2.40" stroke-linecap="round" stroke-linejoin="round"/>
<path d="M3 10h18" fill="none" stroke="#2F2E80" stroke-width="2.40" stroke-linecap="round" stroke-linejoin="round"/>
</g>
<text id="Q3-2026-1-Jul-30-Sep" x="1025.6" y="39.0" font-family="Segoe UI, Roboto, Helvetica Neue, Arial, sans-serif" font-size="13" font-weight="600" fill="#1B1C3A">Q3 2026 · 1 Jul – 30 Sep</text>
</g>
</g>
<g id="client-header">
<rect x="296.0" y="96.0" width="1592.0" height="110.0" rx="12" fill="#FFFFFE" filter="url(#soft)"/>
<circle cx="356.0" cy="151.0" r="34.0" fill="#DCEFE6"/>
<text id="FN" x="340.3" y="161.0" font-family="Segoe UI, Roboto, Helvetica Neue, Arial, sans-serif" font-size="24" font-weight="700" fill="#0E6B41">FN</text>
<text id="Florence-Nambi" x="408.0" y="142.0" font-family="Segoe UI, Roboto, Helvetica Neue, Arial, sans-serif" font-size="24" font-weight="700" fill="#1B1C3A">Florence Nambi</text>
<g id="chip-Client-KYC-completed">
<rect x="597.6" y="123.0" width="157.7" height="24.0" rx="12.0" fill="#E3F2EB"/>
<circle cx="611.6" cy="135.0" r="4.0" fill="#15925A"/>
<text id="Client-KYC-completed" x="621.6" y="139.3" font-family="Segoe UI, Roboto, Helvetica Neue, Arial, sans-serif" font-size="12" font-weight="600" fill="#12804F">Client · KYC completed</text>
</g>
<g id="chip-Loan-awaiting-approval">
<rect x="763.3" y="123.0" width="149.6" height="24.0" rx="12.0" fill="#F6EFE4"/>
<text id="Loan-awaiting-approval" x="773.3" y="139.3" font-family="Segoe UI, Roboto, Helvetica Neue, Arial, sans-serif" font-size="12" font-weight="600" fill="#A16A1B">Loan: awaiting approval</text>
</g>
<text id="Client-CL-0021457-Nambi-Ta" x="408.0" y="170.0" font-family="Segoe UI, Roboto, Helvetica Neue, Arial, sans-serif" font-size="14" font-weight="400" fill="#4B4D6B">Client CL-0021457 · Nambi Tailoring &amp; Fabrics, Kiwatule · 0772 418 ··· · NIN CF84•••••••7KD</text>
<g id="icon-shield-2" transform="translate(408.0 179.0) scale(0.6667)">
<path d="M12 22s8-4 8-10V5l-8-3-8 3v7c0 6 8 10 8 10z" fill="none" stroke="#2F2E80" stroke-width="3.00" stroke-linecap="round" stroke-linejoin="round"/>
<path d="M9 12l2 2 4-4" fill="none" stroke="#2F2E80" stroke-width="3.00" stroke-linecap="round" stroke-linejoin="round"/>
</g>
<text id="Kampala-East-Ntinda-Kiwa" x="430.0" y="192.0" font-family="Segoe UI, Roboto, Helvetica Neue, Arial, sans-serif" font-size="13" font-weight="600" fill="#2F2E80">Kampala East › Ntinda · Kiwatule › Kiwatule market route · prospect and lead by Sarah Namuli · KYC by Joel Byaruhanga</text>
<g id="button-Open-approval">
<rect x="1712.1" y="131.0" width="151.9" height="40.0" rx="12" fill="#2F2E80"/>
<g id="icon-listcheck-2" transform="translate(1728.1 142.0) scale(0.7500)">
<path d="M3 17l2 2 4-4" fill="none" stroke="#FFFFFF" stroke-width="2.67" stroke-linecap="round" stroke-linejoin="round"/>
<path d="M3 7l2 2 4-4" fill="none" stroke="#FFFFFF" stroke-width="2.67" stroke-linecap="round" stroke-linejoin="round"/>
<path d="M13 6h8" fill="none" stroke="#FFFFFF" stroke-width="2.67" stroke-linecap="round" stroke-linejoin="round"/>
<path d="M13 12h8" fill="none" stroke="#FFFFFF" stroke-width="2.67" stroke-linecap="round" stroke-linejoin="round"/>
<path d="M13 18h8" fill="none" stroke="#FFFFFF" stroke-width="2.67" stroke-linecap="round" stroke-linejoin="round"/>
</g>
<text id="Open-approval" x="1754.1" y="156.0" font-family="Segoe UI, Roboto, Helvetica Neue, Arial, sans-serif" font-size="14" font-weight="600" fill="#FFFFFF">Open approval</text>
</g>
<g id="button-Territory">
<rect x="1590.1" y="131.0" width="112.0" height="40.0" rx="12" fill="#FFFFFE" stroke="#E4E5EF" stroke-width="1"/>
<g id="icon-layers-2" transform="translate(1606.1 142.0) scale(0.7500)">
<path d="M12.83 2.18a2 2 0 0 0-1.66 0L2.6 6.08a1 1 0 0 0 0 1.83l8.58 3.91a2 2 0 0 0 1.66 0l8.58-3.9a1 1 0 0 0 0-1.83z" fill="none" stroke="#1B1C3A" stroke-width="2.67" stroke-linecap="round" stroke-linejoin="round"/>
<path d="M22 17.65l-9.17 4.16a2 2 0 0 1-1.66 0L2 17.65" fill="none" stroke="#1B1C3A" stroke-width="2.67" stroke-linecap="round" stroke-linejoin="round"/>
<path d="M22 12.65l-9.17 4.16a2 2 0 0 1-1.66 0L2 12.65" fill="none" stroke="#1B1C3A" stroke-width="2.67" stroke-linecap="round" stroke-linejoin="round"/>
</g>
<text id="Territory" x="1632.1" y="156.0" font-family="Segoe UI, Roboto, Helvetica Neue, Arial, sans-serif" font-size="14" font-weight="600" fill="#1B1C3A">Territory</text>
</g>
</g>
<rect id="Profile-demographics-bg" x="296.0" y="224.0" width="470.0" height="828.0" rx="12" fill="#FFFFFE" filter="url(#soft)"/>
<text id="title" x="320.0" y="262.0" font-family="Segoe UI, Roboto, Helvetica Neue, Arial, sans-serif" font-size="17" font-weight="600" fill="#1B1C3A">Profile &amp; demographics</text>
<text id="subtitle" x="320.0" y="284.0" font-family="Segoe UI, Roboto, Helvetica Neue, Arial, sans-serif" font-size="13" font-weight="400" fill="#7D8099">Captured at KYC · 30 Sep 2026</text>
<text id="label-12" x="320.0" y="316.0" font-family="Segoe UI, Roboto, Helvetica Neue, Arial, sans-serif" font-size="13" font-weight="400" fill="#7D8099">Gender · age</text>
<text id="value" x="668.4" y="316.0" font-family="Segoe UI, Roboto, Helvetica Neue, Arial, sans-serif" font-size="13.5" font-weight="600" fill="#1B1C3A">Woman · 34</text>
<text id="label-13" x="320.0" y="348.0" font-family="Segoe UI, Roboto, Helvetica Neue, Arial, sans-serif" font-size="13" font-weight="400" fill="#7D8099">Marital status</text>
<text id="value-2" x="599.5" y="348.0" font-family="Segoe UI, Roboto, Helvetica Neue, Arial, sans-serif" font-size="13.5" font-weight="600" fill="#1B1C3A">Married · 3 dependants</text>
<text id="label-14" x="320.0" y="380.0" font-family="Segoe UI, Roboto, Helvetica Neue, Arial, sans-serif" font-size="13" font-weight="400" fill="#7D8099">Education</text>
<text id="value-3" x="649.8" y="380.0" font-family="Segoe UI, Roboto, Helvetica Neue, Arial, sans-serif" font-size="13.5" font-weight="600" fill="#1B1C3A">Secondary (S4)</text>
<text id="label-15" x="320.0" y="412.0" font-family="Segoe UI, Roboto, Helvetica Neue, Arial, sans-serif" font-size="13" font-weight="400" fill="#7D8099">Occupation</text>
<text id="value-4" x="579.2" y="412.0" font-family="Segoe UI, Roboto, Helvetica Neue, Arial, sans-serif" font-size="13.5" font-weight="600" fill="#1B1C3A">Tailor, own business (6 yrs)</text>
<text id="label-16" x="320.0" y="444.0" font-family="Segoe UI, Roboto, Helvetica Neue, Arial, sans-serif" font-size="13" font-weight="400" fill="#7D8099">Location</text>
<text id="value-5" x="521.3" y="444.0" font-family="Segoe UI, Roboto, Helvetica Neue, Arial, sans-serif" font-size="13.5" font-weight="600" fill="#1B1C3A">Kiwatule, Nakawa Division, Kampala</text>
<text id="label-17" x="320.0" y="476.0" font-family="Segoe UI, Roboto, Helvetica Neue, Arial, sans-serif" font-size="13" font-weight="400" fill="#7D8099">Phone</text>
<text id="value-6" x="584.0" y="476.0" font-family="Segoe UI, Roboto, Helvetica Neue, Arial, sans-serif" font-size="13.5" font-weight="600" fill="#1B1C3A">MTN 0772 418 ··· · verified</text>
<text id="label-18" x="320.0" y="508.0" font-family="Segoe UI, Roboto, Helvetica Neue, Arial, sans-serif" font-size="13" font-weight="400" fill="#7D8099">Next of kin</text>
<text id="value-7" x="584.5" y="508.0" font-family="Segoe UI, Roboto, Helvetica Neue, Arial, sans-serif" font-size="13.5" font-weight="600" fill="#1B1C3A">Joseph Mukiibi (husband)</text>
<line x1="320.0" y1="532.0" x2="742.0" y2="532.0" stroke="#E4E5EF" stroke-width="1"/>
<text id="Earnings-collateral" x="320.0" y="560.0" font-family="Segoe UI, Roboto, Helvetica Neue, Arial, sans-serif" font-size="15" font-weight="700" fill="#1B1C3A">Earnings &amp; collateral</text>
<text id="label-19" x="320.0" y="590.0" font-family="Segoe UI, Roboto, Helvetica Neue, Arial, sans-serif" font-size="13" font-weight="400" fill="#7D8099">Monthly business income</text>
<text id="value-8" x="651.8" y="590.0" font-family="Segoe UI, Roboto, Helvetica Neue, Arial, sans-serif" font-size="13.5" font-weight="600" fill="#1B1C3A">UGX 2,400,000</text>
<text id="label-20" x="320.0" y="622.0" font-family="Segoe UI, Roboto, Helvetica Neue, Arial, sans-serif" font-size="13" font-weight="400" fill="#7D8099">Monthly expenses</text>
<text id="value-9" x="656.2" y="622.0" font-family="Segoe UI, Roboto, Helvetica Neue, Arial, sans-serif" font-size="13.5" font-weight="600" fill="#1B1C3A">UGX 1,150,000</text>
<text id="label-21" x="320.0" y="654.0" font-family="Segoe UI, Roboto, Helvetica Neue, Arial, sans-serif" font-size="13" font-weight="400" fill="#7D8099">Other loans</text>
<text id="value-10" x="638.1" y="654.0" font-family="Segoe UI, Roboto, Helvetica Neue, Arial, sans-serif" font-size="13.5" font-weight="600" fill="#1B1C3A">None (CRB clear)</text>
<text id="label-22" x="320.0" y="686.0" font-family="Segoe UI, Roboto, Helvetica Neue, Arial, sans-serif" font-size="13" font-weight="400" fill="#7D8099">Collateral</text>
<text id="value-11" x="540.1" y="686.0" font-family="Segoe UI, Roboto, Helvetica Neue, Arial, sans-serif" font-size="13.5" font-weight="600" fill="#1B1C3A">Motorcycle UBF 412K · UGX 4.5M</text>
<text id="label-23" x="320.0" y="718.0" font-family="Segoe UI, Roboto, Helvetica Neue, Arial, sans-serif" font-size="13" font-weight="400" fill="#7D8099">Second collateral</text>
<text id="value-12" x="545.9" y="718.0" font-family="Segoe UI, Roboto, Helvetica Neue, Arial, sans-serif" font-size="13.5" font-weight="600" fill="#1B1C3A">Sewing machines (3) · UGX 1.8M</text>
<g id="lead-note">
<rect x="320.0" y="754.0" width="422.0" height="124.0" rx="10" fill="#F7F7FC"/>
<text id="From-Sarah-s-lead" x="336.0" y="780.0" font-family="Segoe UI, Roboto, Helvetica Neue, Arial, sans-serif" font-size="12.5" font-weight="700" fill="#4B4D6B">From Sarah's lead</text>
<g id="para-Wants-UGX-6M-for-a-s">
<text id="line" x="336.0" y="802.0" font-family="Segoe UI, Roboto, Helvetica Neue, Arial, sans-serif" font-size="13" font-weight="400" fill="#4B4D6B">Wants UGX 6M for a second industrial sewing machine before</text>
<text id="line-2" x="336.0" y="822.0" font-family="Segoe UI, Roboto, Helvetica Neue, Arial, sans-serif" font-size="13" font-weight="400" fill="#4B4D6B">January. Uniform orders from 4 schools each term.</text>
</g>
</g>
<rect id="KYC-documents-checks-bg" x="786.0" y="224.0" width="560.0" height="828.0" rx="12" fill="#FFFFFE" filter="url(#soft)"/>
<text id="title-2" x="810.0" y="262.0" font-family="Segoe UI, Roboto, Helvetica Neue, Arial, sans-serif" font-size="17" font-weight="600" fill="#1B1C3A">KYC documents &amp; checks</text>
<text id="subtitle-2" x="810.0" y="284.0" font-family="Segoe UI, Roboto, Helvetica Neue, Arial, sans-serif" font-size="13" font-weight="400" fill="#7D8099">Captured by Joel Byaruhanga · all GPS-stamped at the client</text>
<g id="document-NIRA-ID-front">
<rect x="810.0" y="302.0" width="162.7" height="130.0" rx="8" fill="#EEF0F6" stroke="#E4E5EF" stroke-width="1"/>
<rect x="818.0" y="310.0" width="146.7" height="90.0" rx="6" fill="#E6ECE0" stroke="#C9D3BF" stroke-width="1"/>
<rect x="818.0" y="310.0" width="146.7" height="16.2" rx="6" fill="#1C1C1C" fill-opacity="0.85"/>
<rect x="826.8" y="338.8" width="11.7" height="7.2" fill="#D72222"/>
<rect x="838.5" y="338.8" width="11.7" height="7.2" fill="#FCDC04"/>
<rect x="826.8" y="351.4" width="38.1" height="39.6" rx="3" fill="#B9A58E"/>
<circle cx="845.9" cy="364.0" r="8.1" fill="#6B4F3A"/>
<rect x="873.7" y="338.8" width="73.3" height="5.4" rx="2" fill="#8A937F"/>
<rect x="873.7" y="351.4" width="63.1" height="5.4" rx="2" fill="#8A937F"/>
<rect x="873.7" y="364.0" width="52.8" height="5.4" rx="2" fill="#8A937F"/>
<rect x="873.7" y="376.6" width="42.5" height="5.4" rx="2" fill="#8A937F"/>
<text id="caption" x="820.0" y="419.0" font-family="Segoe UI, Roboto, Helvetica Neue, Arial, sans-serif" font-size="12" font-weight="600" fill="#1B1C3A">NIRA ID · front</text>
<circle cx="956.7" cy="415.0" r="8.0" fill="#15925A"/>
<g id="icon-check" transform="translate(951.7 410.0) scale(0.4167)">
<path d="M20 6L9 17l-5-5" fill="none" stroke="#FFFFFF" stroke-width="8.16" stroke-linecap="round" stroke-linejoin="round"/>
</g>
</g>
<g id="document-NIRA-ID-back">
<rect x="984.7" y="302.0" width="162.7" height="130.0" rx="8" fill="#EEF0F6" stroke="#E4E5EF" stroke-width="1"/>
<rect x="992.7" y="310.0" width="146.7" height="90.0" rx="6" fill="#E6ECE0" stroke="#C9D3BF" stroke-width="1"/>
<rect x="992.7" y="310.0" width="146.7" height="16.2" rx="6" fill="#1C1C1C" fill-opacity="0.85"/>
<rect x="1001.5" y="338.8" width="11.7" height="7.2" fill="#D72222"/>
<rect x="1013.2" y="338.8" width="11.7" height="7.2" fill="#FCDC04"/>
<rect x="1001.5" y="365.8" width="129.1" height="4.5" rx="1" fill="#6D745F"/>
<rect x="1001.5" y="374.8" width="129.1" height="4.5" rx="1" fill="#6D745F"/>
<rect x="1001.5" y="383.8" width="129.1" height="4.5" rx="1" fill="#6D745F"/>
<rect x="1089.5" y="333.4" width="38.1" height="38.1" fill="#FFFFFF" stroke="#6D745F" stroke-width="1"/>
<text id="caption-2" x="994.7" y="419.0" font-family="Segoe UI, Roboto, Helvetica Neue, Arial, sans-serif" font-size="12" font-weight="600" fill="#1B1C3A">NIRA ID · back</text>
<circle cx="1131.3" cy="415.0" r="8.0" fill="#15925A"/>
<g id="icon-check-2" transform="translate(1126.3 410.0) scale(0.4167)">
<path d="M20 6L9 17l-5-5" fill="none" stroke="#FFFFFF" stroke-width="8.16" stroke-linecap="round" stroke-linejoin="round"/>
</g>
</g>
<g id="document-Selfie-live-check">
<rect x="1159.3" y="302.0" width="162.7" height="130.0" rx="8" fill="#EEF0F6" stroke="#E4E5EF" stroke-width="1"/>
<rect x="1167.3" y="310.0" width="146.7" height="90.0" rx="6" fill="#C7D3E6"/>
<circle cx="1240.7" cy="347.8" r="18.0" fill="#7A5638"/>
<path d="M1199.6 400.0 C1204.0 373.0 1277.3 373.0 1281.7 400.0 Z" fill="#D9642E"/>
<rect x="1196.7" y="320.8" width="88.0" height="59.4" rx="27.0" fill="none" stroke="#FFFFFF" stroke-width="1.5" stroke-dasharray="4 3"/>
<text id="caption-3" x="1169.3" y="419.0" font-family="Segoe UI, Roboto, Helvetica Neue, Arial, sans-serif" font-size="12" font-weight="600" fill="#1B1C3A">Selfie · live check</text>
<circle cx="1306.0" cy="415.0" r="8.0" fill="#15925A"/>
<g id="icon-check-3" transform="translate(1301.0 410.0) scale(0.4167)">
<path d="M20 6L9 17l-5-5" fill="none" stroke="#FFFFFF" stroke-width="8.16" stroke-linecap="round" stroke-linejoin="round"/>
</g>
</g>
<g id="document-Business-premises">
<rect x="810.0" y="444.0" width="162.7" height="130.0" rx="8" fill="#EEF0F6" stroke="#E4E5EF" stroke-width="1"/>
<rect x="818.0" y="452.0" width="146.7" height="90.0" rx="6" fill="#BFD7EA"/>
<rect x="832.7" y="479.0" width="117.3" height="63.0" fill="#E9D8B4"/>
<rect x="826.8" y="471.8" width="129.1" height="12.6" fill="#4744A8"/>
<rect x="838.5" y="493.4" width="20.5" height="48.6" fill="#D84F6F"/>
<rect x="866.4" y="493.4" width="20.5" height="48.6" fill="#3F8FD2"/>
<rect x="894.3" y="493.4" width="20.5" height="48.6" fill="#F2B705"/>
<rect x="922.1" y="493.4" width="20.5" height="48.6" fill="#4BA36B"/>
<text id="caption-4" x="820.0" y="561.0" font-family="Segoe UI, Roboto, Helvetica Neue, Arial, sans-serif" font-size="12" font-weight="600" fill="#1B1C3A">Business premises</text>
<circle cx="956.7" cy="557.0" r="8.0" fill="#15925A"/>
<g id="icon-check-4" transform="translate(951.7 552.0) scale(0.4167)">
<path d="M20 6L9 17l-5-5" fill="none" stroke="#FFFFFF" stroke-width="8.16" stroke-linecap="round" stroke-linejoin="round"/>
</g>
</g>
<g id="document-Sales-book-3-mo">
<rect x="984.7" y="444.0" width="162.7" height="130.0" rx="8" fill="#EEF0F6" stroke="#E4E5EF" stroke-width="1"/>
<rect x="1019.1" y="452.0" width="93.9" height="90.0" fill="#FFFFFF" stroke="#D5D8E4" stroke-width="1"/>
<rect x="1029.3" y="462.8" width="46.9" height="3.6" rx="1" fill="#B5B9CC"/>
<rect x="1029.3" y="472.7" width="73.3" height="3.6" rx="1" fill="#B5B9CC"/>
<rect x="1029.3" y="482.6" width="73.3" height="3.6" rx="1" fill="#B5B9CC"/>
<rect x="1029.3" y="492.5" width="46.9" height="3.6" rx="1" fill="#B5B9CC"/>
<rect x="1029.3" y="502.4" width="73.3" height="3.6" rx="1" fill="#B5B9CC"/>
<rect x="1029.3" y="512.3" width="73.3" height="3.6" rx="1" fill="#B5B9CC"/>
<rect x="1029.3" y="522.2" width="46.9" height="3.6" rx="1" fill="#B5B9CC"/>
<text id="caption-5" x="994.7" y="561.0" font-family="Segoe UI, Roboto, Helvetica Neue, Arial, sans-serif" font-size="12" font-weight="600" fill="#1B1C3A">Sales book (3 mo)</text>
<circle cx="1131.3" cy="557.0" r="8.0" fill="#15925A"/>
<g id="icon-check-5" transform="translate(1126.3 552.0) scale(0.4167)">
<path d="M20 6L9 17l-5-5" fill="none" stroke="#FFFFFF" stroke-width="8.16" stroke-linecap="round" stroke-linejoin="round"/>
</g>
</g>
<g id="document-Collateral-logbook">
<rect x="1159.3" y="444.0" width="162.7" height="130.0" rx="8" fill="#EEF0F6" stroke="#E4E5EF" stroke-width="1"/>
<rect x="1167.3" y="452.0" width="146.7" height="90.0" rx="6" fill="#D8E4D0"/>
<circle cx="1208.4" cy="516.8" r="14.4" fill="none" stroke="#333" stroke-width="3"/>
<circle cx="1275.9" cy="516.8" r="14.4" fill="none" stroke="#333" stroke-width="3"/>
<path d="M1208.4 516.8 L1233.3 492.5 L1264.1 492.5 L1275.9 516.8" fill="none" stroke="#C62828" stroke-width="4" stroke-linejoin="round" stroke-linecap="round"/>
<text id="caption-6" x="1169.3" y="561.0" font-family="Segoe UI, Roboto, Helvetica Neue, Arial, sans-serif" font-size="12" font-weight="600" fill="#1B1C3A">Collateral · logbook</text>
<circle cx="1306.0" cy="557.0" r="8.0" fill="#15925A"/>
<g id="icon-check-6" transform="translate(1301.0 552.0) scale(0.4167)">
<path d="M20 6L9 17l-5-5" fill="none" stroke="#FFFFFF" stroke-width="8.16" stroke-linecap="round" stroke-linejoin="round"/>
</g>
</g>
<text id="Checks" x="810.0" y="602.0" font-family="Segoe UI, Roboto, Helvetica Neue, Arial, sans-serif" font-size="15" font-weight="700" fill="#1B1C3A">Checks</text>
<circle cx="820.0" cy="638.0" r="10.0" fill="#DCEFE6"/>
<g id="icon-check-7" transform="translate(813.0 631.0) scale(0.5833)">
<path d="M20 6L9 17l-5-5" fill="none" stroke="#15925A" stroke-width="5.14" stroke-linecap="round" stroke-linejoin="round"/>
</g>
<text id="NIRA-NIN-name-and-photo-ma" x="840.0" y="637.0" font-family="Segoe UI, Roboto, Helvetica Neue, Arial, sans-serif" font-size="13.5" font-weight="600" fill="#1B1C3A">NIRA: NIN, name and photo match</text>
<text id="Verified-30-Sep-11-21-same" x="840.0" y="654.0" font-family="Segoe UI, Roboto, Helvetica Neue, Arial, sans-serif" font-size="12" font-weight="400" fill="#7D8099">Verified 30 Sep 11:21 · same NIN as the lead</text>
<circle cx="820.0" cy="682.0" r="10.0" fill="#DCEFE6"/>
<g id="icon-check-8" transform="translate(813.0 675.0) scale(0.5833)">
<path d="M20 6L9 17l-5-5" fill="none" stroke="#15925A" stroke-width="5.14" stroke-linecap="round" stroke-linejoin="round"/>
</g>
<text id="Phone-registered-to-this-nam" x="840.0" y="681.0" font-family="Segoe UI, Roboto, Helvetica Neue, Arial, sans-serif" font-size="13.5" font-weight="600" fill="#1B1C3A">Phone registered to this name (MTN)</text>
<text id="Verified" x="840.0" y="698.0" font-family="Segoe UI, Roboto, Helvetica Neue, Arial, sans-serif" font-size="12" font-weight="400" fill="#7D8099">Verified</text>
<circle cx="820.0" cy="726.0" r="10.0" fill="#DCEFE6"/>
<g id="icon-check-9" transform="translate(813.0 719.0) scale(0.5833)">
<path d="M20 6L9 17l-5-5" fill="none" stroke="#15925A" stroke-width="5.14" stroke-linecap="round" stroke-linejoin="round"/>
</g>
<text id="Not-already-a-Letshego-clien" x="840.0" y="725.0" font-family="Segoe UI, Roboto, Helvetica Neue, Arial, sans-serif" font-size="13.5" font-weight="600" fill="#1B1C3A">Not already a Letshego client</text>
<text id="No-match-in-core-banking" x="840.0" y="742.0" font-family="Segoe UI, Roboto, Helvetica Neue, Arial, sans-serif" font-size="12" font-weight="400" fill="#7D8099">No match in core banking</text>
<circle cx="820.0" cy="770.0" r="10.0" fill="#DCEFE6"/>
<g id="icon-check-10" transform="translate(813.0 763.0) scale(0.5833)">
<path d="M20 6L9 17l-5-5" fill="none" stroke="#15925A" stroke-width="5.14" stroke-linecap="round" stroke-linejoin="round"/>
</g>
<text id="Location-inside-the-territor" x="840.0" y="769.0" font-family="Segoe UI, Roboto, Helvetica Neue, Arial, sans-serif" font-size="13.5" font-weight="600" fill="#1B1C3A">Location inside the territory</text>
<text id="Kiwatule-0-3712-32-6205" x="840.0" y="786.0" font-family="Segoe UI, Roboto, Helvetica Neue, Arial, sans-serif" font-size="12" font-weight="400" fill="#7D8099">Kiwatule · 0.3712, 32.6205</text>
<circle cx="820.0" cy="814.0" r="10.0" fill="#DCEFE6"/>
<g id="icon-check-11" transform="translate(813.0 807.0) scale(0.5833)">
<path d="M20 6L9 17l-5-5" fill="none" stroke="#15925A" stroke-width="5.14" stroke-linecap="round" stroke-linejoin="round"/>
</g>
<text id="Affordability-instalment" x="840.0" y="813.0" font-family="Segoe UI, Roboto, Helvetica Neue, Arial, sans-serif" font-size="13.5" font-weight="600" fill="#1B1C3A">Affordability: instalment ≤ 50% of free income</text>
<text id="Instalment-36-of-free-incom" x="840.0" y="830.0" font-family="Segoe UI, Roboto, Helvetica Neue, Arial, sans-serif" font-size="12" font-weight="400" fill="#7D8099">Instalment 36% of free income</text>
<circle cx="820.0" cy="858.0" r="10.0" fill="#DCEFE6"/>
<g id="icon-check-12" transform="translate(813.0 851.0) scale(0.5833)">
<path d="M20 6L9 17l-5-5" fill="none" stroke="#15925A" stroke-width="5.14" stroke-linecap="round" stroke-linejoin="round"/>
</g>
<text id="CRB-consent-signed-on-the-ph" x="840.0" y="857.0" font-family="Segoe UI, Roboto, Helvetica Neue, Arial, sans-serif" font-size="13.5" font-weight="600" fill="#1B1C3A">CRB consent signed on the phone</text>
<text id="Signed-30-Sep-11-23" x="840.0" y="874.0" font-family="Segoe UI, Roboto, Helvetica Neue, Arial, sans-serif" font-size="12" font-weight="400" fill="#7D8099">Signed 30 Sep 11:23</text>
<rect id="Client-journey-bg" x="1366.0" y="224.0" width="522.0" height="828.0" rx="12" fill="#FFFFFE" filter="url(#soft)"/>
<text id="title-3" x="1390.0" y="262.0" font-family="Segoe UI, Roboto, Helvetica Neue, Arial, sans-serif" font-size="17" font-weight="600" fill="#1B1C3A">Client journey</text>
<text id="subtitle-3" x="1390.0" y="284.0" font-family="Segoe UI, Roboto, Helvetica Neue, Arial, sans-serif" font-size="13" font-weight="400" fill="#7D8099">Every step with who, when and where</text>
<g id="step-Prospect">
<line x1="1404.0" y1="326.0" x2="1404.0" y2="370.0" stroke="#2F6FDB" stroke-width="2"/>
<circle cx="1404.0" cy="312.0" r="14.0" fill="#7056D6" stroke="#7056D6" stroke-width="2"/>
<text id="1" x="1400.5" y="316.5" font-family="Segoe UI, Roboto, Helvetica Neue, Arial, sans-serif" font-size="12" font-weight="700" fill="#FFFFFF">1</text>
<text id="Prospect" x="1430.0" y="310.0" font-family="Segoe UI, Roboto, Helvetica Neue, Arial, sans-serif" font-size="14" font-weight="600" fill="#1B1C3A">Prospect</text>
<text id="Sarah-Namuli-Tue-22-Sep-10" x="1430.0" y="328.0" font-family="Segoe UI, Roboto, Helvetica Neue, Arial, sans-serif" font-size="12" font-weight="400" fill="#7D8099">Sarah Namuli · Tue 22 Sep 10:18 · Kiwatule market · GPS ±6 m</text>
</g>
<g id="step-Lead">
<line x1="1404.0" y1="384.0" x2="1404.0" y2="428.0" stroke="#0E8C99" stroke-width="2"/>
<circle cx="1404.0" cy="370.0" r="14.0" fill="#2F6FDB" stroke="#2F6FDB" stroke-width="2"/>
<text id="2" x="1400.5" y="374.5" font-family="Segoe UI, Roboto, Helvetica Neue, Arial, sans-serif" font-size="12" font-weight="700" fill="#FFFFFF">2</text>
<text id="Lead" x="1430.0" y="368.0" font-family="Segoe UI, Roboto, Helvetica Neue, Arial, sans-serif" font-size="14" font-weight="600" fill="#1B1C3A">Lead</text>
<text id="Sarah-Wed-23-Sep-14-05-wa" x="1430.0" y="386.0" font-family="Segoe UI, Roboto, Helvetica Neue, Arial, sans-serif" font-size="12" font-weight="400" fill="#7D8099">Sarah, Wed 23 Sep 14:05 · wants UGX 6M · NIN and location</text>
</g>
<g id="step-On-a-lead-journey-plan">
<line x1="1404.0" y1="442.0" x2="1404.0" y2="486.0" stroke="#0E8C99" stroke-width="2"/>
<circle cx="1404.0" cy="428.0" r="14.0" fill="#0E8C99" stroke="#0E8C99" stroke-width="2"/>
<text id="3" x="1400.5" y="432.5" font-family="Segoe UI, Roboto, Helvetica Neue, Arial, sans-serif" font-size="12" font-weight="700" fill="#FFFFFF">3</text>
<text id="On-a-lead-journey-plan" x="1430.0" y="426.0" font-family="Segoe UI, Roboto, Helvetica Neue, Arial, sans-serif" font-size="14" font-weight="600" fill="#1B1C3A">On a lead journey plan</text>
<text id="Moses-Okello-Kiwatule-lead" x="1430.0" y="444.0" font-family="Segoe UI, Roboto, Helvetica Neue, Arial, sans-serif" font-size="12" font-weight="400" fill="#7D8099">Moses Okello · Kiwatule leads · Joel Byaruhanga · 28 Sep</text>
</g>
<g id="step-Visited">
<line x1="1404.0" y1="500.0" x2="1404.0" y2="544.0" stroke="#15925A" stroke-width="2"/>
<circle cx="1404.0" cy="486.0" r="14.0" fill="#0E8C99" stroke="#0E8C99" stroke-width="2"/>
<text id="4" x="1400.5" y="490.5" font-family="Segoe UI, Roboto, Helvetica Neue, Arial, sans-serif" font-size="12" font-weight="700" fill="#FFFFFF">4</text>
<text id="Visited" x="1430.0" y="484.0" font-family="Segoe UI, Roboto, Helvetica Neue, Arial, sans-serif" font-size="14" font-weight="600" fill="#1B1C3A">Visited</text>
<text id="Joel-Byaruhanga-30-Sep-11" x="1430.0" y="502.0" font-family="Segoe UI, Roboto, Helvetica Neue, Arial, sans-serif" font-size="12" font-weight="400" fill="#7D8099">Joel Byaruhanga · 30 Sep 11:14 · GPS ±9 m</text>
</g>
<g id="step-KYC-completed-client">
<line x1="1404.0" y1="558.0" x2="1404.0" y2="602.0" stroke="#15925A" stroke-width="2"/>
<circle cx="1404.0" cy="544.0" r="14.0" fill="#15925A" stroke="#15925A" stroke-width="2"/>
<text id="5-2" x="1400.5" y="548.5" font-family="Segoe UI, Roboto, Helvetica Neue, Arial, sans-serif" font-size="12" font-weight="700" fill="#FFFFFF">5</text>
<text id="KYC-completed-client" x="1430.0" y="542.0" font-family="Segoe UI, Roboto, Helvetica Neue, Arial, sans-serif" font-size="14" font-weight="600" fill="#1B1C3A">KYC completed: client</text>
<text id="30-Sep-11-24-6-checks-pass" x="1430.0" y="560.0" font-family="Segoe UI, Roboto, Helvetica Neue, Arial, sans-serif" font-size="12" font-weight="400" fill="#7D8099">30 Sep 11:24 · 6 checks passed · the conversion</text>
</g>
<g id="step-Loan-application-sent">
<line x1="1404.0" y1="616.0" x2="1404.0" y2="660.0" stroke="#E4E5EF" stroke-width="2" stroke-dasharray="4 4"/>
<circle cx="1404.0" cy="602.0" r="14.0" fill="#15925A" stroke="#15925A" stroke-width="2"/>
<text id="6" x="1400.5" y="606.5" font-family="Segoe UI, Roboto, Helvetica Neue, Arial, sans-serif" font-size="12" font-weight="700" fill="#FFFFFF">6</text>
<text id="Loan-application-sent" x="1430.0" y="600.0" font-family="Segoe UI, Roboto, Helvetica Neue, Arial, sans-serif" font-size="14" font-weight="600" fill="#1B1C3A">Loan application sent</text>
<text id="30-Sep-11-42-LU-APP-2609-0" x="1430.0" y="618.0" font-family="Segoe UI, Roboto, Helvetica Neue, Arial, sans-serif" font-size="12" font-weight="400" fill="#7D8099">30 Sep 11:42 · LU-APP-2609-04817</text>
</g>
<g id="step-Loan-decision">
<circle cx="1404.0" cy="660.0" r="14.0" fill="#FFFFFE" stroke="#C4C7D6" stroke-width="2"/>
<text id="7" x="1400.5" y="664.5" font-family="Segoe UI, Roboto, Helvetica Neue, Arial, sans-serif" font-size="12" font-weight="700" fill="#7D8099">7</text>
<text id="Loan-decision" x="1430.0" y="658.0" font-family="Segoe UI, Roboto, Helvetica Neue, Arial, sans-serif" font-size="14" font-weight="600" fill="#7D8099">Loan decision</text>
<text id="Waiting-for-Moses-Okello-1" x="1430.0" y="676.0" font-family="Segoe UI, Roboto, Helvetica Neue, Arial, sans-serif" font-size="12" font-weight="400" fill="#7D8099">Waiting for Moses Okello · 18 min</text>
</g>
<g id="loan-application">
<rect x="1390.0" y="724.0" width="474.0" height="308.0" rx="10" fill="#EFF7F3" stroke="#ADD9C5" stroke-width="1"/>
<text id="Loan-application" x="1406.0" y="752.0" font-family="Segoe UI, Roboto, Helvetica Neue, Arial, sans-serif" font-size="13" font-weight="700" fill="#0E6B41">Loan application</text>
<text id="LU-APP-2609-04817" x="1406.0" y="778.0" font-family="Segoe UI, Roboto, Helvetica Neue, Arial, sans-serif" font-size="18" font-weight="700" fill="#1B1C3A">LU-APP-2609-04817</text>
<text id="UGX-6-000-000-18-months" x="1406.0" y="802.0" font-family="Segoe UI, Roboto, Helvetica Neue, Arial, sans-serif" font-size="12.5" font-weight="400" fill="#4B4D6B">UGX 6,000,000 · 18 months · ≈ UGX 432,500 a month</text>
<text id="Reason-for-the-loan-second" x="1406.0" y="822.0" font-family="Segoe UI, Roboto, Helvetica Neue, Arial, sans-serif" font-size="12.5" font-weight="400" fill="#4B4D6B">Reason for the loan: second industrial sewing machine</text>
<text id="Counts-as-a-client-for" x="1406.0" y="856.0" font-family="Segoe UI, Roboto, Helvetica Neue, Arial, sans-serif" font-size="12.5" font-weight="700" fill="#0E6B41">Counts as a client for</text>
<g id="icon-check-13" transform="translate(1406.0 874.0) scale(0.5833)">
<path d="M20 6L9 17l-5-5" fill="none" stroke="#15925A" stroke-width="4.80" stroke-linecap="round" stroke-linejoin="round"/>
</g>
<text id="Sarah-Namuli-her-prospect" x="1426.0" y="886.0" font-family="Segoe UI, Roboto, Helvetica Neue, Arial, sans-serif" font-size="12.5" font-weight="400" fill="#4B4D6B">Sarah Namuli · her prospect and lead</text>
<g id="icon-check-14" transform="translate(1406.0 900.0) scale(0.5833)">
<path d="M20 6L9 17l-5-5" fill="none" stroke="#15925A" stroke-width="4.80" stroke-linecap="round" stroke-linejoin="round"/>
</g>
<text id="Joel-Byaruhanga-his-KYC" x="1426.0" y="912.0" font-family="Segoe UI, Roboto, Helvetica Neue, Arial, sans-serif" font-size="12.5" font-weight="400" fill="#4B4D6B">Joel Byaruhanga · his KYC</text>
<g id="icon-check-15" transform="translate(1406.0 926.0) scale(0.5833)">
<path d="M20 6L9 17l-5-5" fill="none" stroke="#15925A" stroke-width="4.80" stroke-linecap="round" stroke-linejoin="round"/>
</g>
<text id="Kampala-East-Q3-131-of-19" x="1426.0" y="938.0" font-family="Segoe UI, Roboto, Helvetica Neue, Arial, sans-serif" font-size="12.5" font-weight="400" fill="#4B4D6B">Kampala East · Q3: 131 of 190 clients</text>
<text id="The-loan-decision-doesn-t-ch" x="1406.0" y="990.0" font-family="Segoe UI, Roboto, Helvetica Neue, Arial, sans-serif" font-size="12.5" font-weight="600" fill="#0E6B41">The loan decision doesn't change the conversion</text>
</g>
</svg>
